<?xml version="1.0" encoding="utf-8" standalone="no"?>
<!DOCTYPE svg PUBLIC "-//W3C//DTD SVG 1.1//EN"
  "http://www.w3.org/Graphics/SVG/1.1/DTD/svg11.dtd">
<!-- Created with matplotlib (https://matplotlib.org/) -->
<svg height="712.984063pt" version="1.1" viewBox="0 0 1071.373047 712.984063" width="1071.373047pt" xmlns="http://www.w3.org/2000/svg" xmlns:xlink="http://www.w3.org/1999/xlink">
 <defs>
  <style type="text/css">
*{stroke-linecap:butt;stroke-linejoin:round;}
  </style>
 </defs>
 <g id="figure_1">
  <g id="patch_1">
   <path d="M 0 712.984063
L 1071.373047 712.984063
L 1071.373047 0
L 0 0
z
" style="fill:#ffffff;"/>
  </g>
  <g id="axes_1">
   <g id="patch_2">
    <path d="M 73.032813 667.818438
L 1064.173047 667.818438
L 1064.173047 28.418438
L 73.032813 28.418438
z
" style="fill:#ffffff;"/>
   </g>
   <g id="matplotlib.axis_1">
    <g id="xtick_1">
     <g id="line2d_1">
      <path clip-path="url(#pa31ec04a45)" d="M 118.084641 667.818438
L 118.084641 28.418438
" style="fill:none;stroke:#e6e2df;stroke-linecap:square;stroke-width:0.8;"/>
     </g>
     <g id="line2d_2"/>
     <g id="text_1">
      <!-- $\mathdefault{8}$ -->
      <defs>
       <path d="M 51.265625 19.1875
Q 51.265625 9.671875 45.203125 4.34375
Q 39.15625 -0.984375 27.828125 -0.984375
Q 16.796875 -0.984375 10.5625 4.234375
Q 4.34375 9.46875 4.34375 19.09375
Q 4.34375 25.828125 8.203125 30.421875
Q 12.0625 35.015625 18.0625 35.984375
L 18.0625 36.1875
Q 12.453125 37.5 9.203125 41.890625
Q 5.953125 46.296875 5.953125 52.203125
Q 5.953125 60.0625 11.828125 64.9375
Q 17.71875 69.828125 27.640625 69.828125
Q 37.796875 69.828125 43.671875 65.03125
Q 49.5625 60.25 49.5625 52.09375
Q 49.5625 46.1875 46.28125 41.796875
Q 43.015625 37.40625 37.359375 36.28125
L 37.359375 36.078125
Q 43.953125 35.015625 47.609375 30.5
Q 51.265625 25.984375 51.265625 19.1875
z
M 40.4375 51.609375
Q 40.4375 63.28125 27.640625 63.28125
Q 21.4375 63.28125 18.1875 60.34375
Q 14.9375 57.421875 14.9375 51.609375
Q 14.9375 45.703125 18.28125 42.59375
Q 21.625 39.5 27.734375 39.5
Q 33.9375 39.5 37.1875 42.359375
Q 40.4375 45.21875 40.4375 51.609375
z
M 42.140625 20.015625
Q 42.140625 26.421875 38.328125 29.65625
Q 34.515625 32.90625 27.640625 32.90625
Q 20.953125 32.90625 17.1875 29.40625
Q 13.421875 25.921875 13.421875 19.828125
Q 13.421875 5.609375 27.9375 5.609375
Q 35.109375 5.609375 38.625 9.046875
Q 42.140625 12.5 42.140625 20.015625
z
" id="LiberationSans-56"/>
      </defs>
      <g style="fill:#444950;" transform="translate(113.884641 684.68875)scale(0.15 -0.15)">
       <use transform="translate(0 0.171875)" xlink:href="#LiberationSans-56"/>
      </g>
     </g>
    </g>
    <g id="xtick_2">
     <g id="line2d_3">
      <path clip-path="url(#pa31ec04a45)" d="M 298.291957 667.818438
L 298.291957 28.418438
" style="fill:none;stroke:#e6e2df;stroke-linecap:square;stroke-width:0.8;"/>
     </g>
     <g id="line2d_4"/>
     <g id="text_2">
      <!-- $\mathdefault{16}$ -->
      <defs>
       <path d="M 7.625 0
L 7.625 7.46875
L 25.140625 7.46875
L 25.140625 60.40625
L 9.625 49.3125
L 9.625 57.625
L 25.875 68.796875
L 33.984375 68.796875
L 33.984375 7.46875
L 50.734375 7.46875
L 50.734375 0
z
" id="LiberationSans-49"/>
       <path d="M 51.21875 22.515625
Q 51.21875 11.625 45.3125 5.3125
Q 39.40625 -0.984375 29 -0.984375
Q 17.390625 -0.984375 11.234375 7.65625
Q 5.078125 16.3125 5.078125 32.8125
Q 5.078125 50.6875 11.46875 60.25
Q 17.875 69.828125 29.6875 69.828125
Q 45.265625 69.828125 49.3125 55.8125
L 40.921875 54.296875
Q 38.328125 62.703125 29.59375 62.703125
Q 22.078125 62.703125 17.9375 55.6875
Q 13.8125 48.6875 13.8125 35.40625
Q 16.21875 39.84375 20.5625 42.15625
Q 24.90625 44.484375 30.515625 44.484375
Q 40.046875 44.484375 45.625 38.515625
Q 51.21875 32.5625 51.21875 22.515625
z
M 42.28125 22.125
Q 42.28125 29.59375 38.625 33.640625
Q 34.96875 37.703125 28.421875 37.703125
Q 22.265625 37.703125 18.484375 34.109375
Q 14.703125 30.515625 14.703125 24.21875
Q 14.703125 16.265625 18.625 11.1875
Q 22.5625 6.109375 28.71875 6.109375
Q 35.0625 6.109375 38.671875 10.375
Q 42.28125 14.65625 42.28125 22.125
z
" id="LiberationSans-54"/>
      </defs>
      <g style="fill:#444950;" transform="translate(289.891957 684.68875)scale(0.15 -0.15)">
       <use transform="translate(0 0.171875)" xlink:href="#LiberationSans-49"/>
       <use transform="translate(55.615234 0.171875)" xlink:href="#LiberationSans-54"/>
      </g>
     </g>
    </g>
    <g id="xtick_3">
     <g id="line2d_5">
      <path clip-path="url(#pa31ec04a45)" d="M 478.499272 667.818438
L 478.499272 28.418438
" style="fill:none;stroke:#e6e2df;stroke-linecap:square;stroke-width:0.8;"/>
     </g>
     <g id="line2d_6"/>
     <g id="text_3">
      <!-- $\mathdefault{32}$ -->
      <defs>
       <path d="M 51.21875 19
Q 51.21875 9.46875 45.15625 4.234375
Q 39.109375 -0.984375 27.875 -0.984375
Q 17.4375 -0.984375 11.203125 3.734375
Q 4.984375 8.453125 3.8125 17.671875
L 12.890625 18.5
Q 14.65625 6.296875 27.875 6.296875
Q 34.515625 6.296875 38.296875 9.5625
Q 42.09375 12.84375 42.09375 19.28125
Q 42.09375 24.90625 37.765625 28.046875
Q 33.453125 31.203125 25.296875 31.203125
L 20.3125 31.203125
L 20.3125 38.8125
L 25.09375 38.8125
Q 32.328125 38.8125 36.296875 41.96875
Q 40.28125 45.125 40.28125 50.6875
Q 40.28125 56.203125 37.03125 59.390625
Q 33.796875 62.59375 27.390625 62.59375
Q 21.578125 62.59375 17.984375 59.609375
Q 14.40625 56.640625 13.8125 51.21875
L 4.984375 51.90625
Q 5.953125 60.359375 11.984375 65.09375
Q 18.015625 69.828125 27.484375 69.828125
Q 37.84375 69.828125 43.578125 65.015625
Q 49.3125 60.203125 49.3125 51.609375
Q 49.3125 45.015625 45.625 40.890625
Q 41.9375 36.765625 34.90625 35.296875
L 34.90625 35.109375
Q 42.625 34.28125 46.921875 29.9375
Q 51.21875 25.59375 51.21875 19
z
" id="LiberationSans-51"/>
       <path d="M 5.03125 0
L 5.03125 6.203125
Q 7.515625 11.921875 11.109375 16.28125
Q 14.703125 20.65625 18.65625 24.1875
Q 22.609375 27.734375 26.484375 30.765625
Q 30.375 33.796875 33.5 36.8125
Q 36.625 39.84375 38.546875 43.15625
Q 40.484375 46.484375 40.484375 50.6875
Q 40.484375 56.34375 37.15625 59.46875
Q 33.84375 62.59375 27.9375 62.59375
Q 22.3125 62.59375 18.671875 59.546875
Q 15.046875 56.5 14.40625 50.984375
L 5.421875 51.8125
Q 6.390625 60.0625 12.421875 64.9375
Q 18.453125 69.828125 27.9375 69.828125
Q 38.328125 69.828125 43.921875 64.921875
Q 49.515625 60.015625 49.515625 50.984375
Q 49.515625 46.96875 47.671875 43.015625
Q 45.84375 39.0625 42.234375 35.109375
Q 38.625 31.15625 28.421875 22.859375
Q 22.796875 18.265625 19.46875 14.578125
Q 16.15625 10.890625 14.703125 7.46875
L 50.59375 7.46875
L 50.59375 0
z
" id="LiberationSans-50"/>
      </defs>
      <g style="fill:#444950;" transform="translate(470.099272 684.68875)scale(0.15 -0.15)">
       <use transform="translate(0 0.171875)" xlink:href="#LiberationSans-51"/>
       <use transform="translate(55.615234 0.171875)" xlink:href="#LiberationSans-50"/>
      </g>
     </g>
    </g>
    <g id="xtick_4">
     <g id="line2d_7">
      <path clip-path="url(#pa31ec04a45)" d="M 658.706587 667.818438
L 658.706587 28.418438
" style="fill:none;stroke:#e6e2df;stroke-linecap:square;stroke-width:0.8;"/>
     </g>
     <g id="line2d_8"/>
     <g id="text_4">
      <!-- $\mathdefault{64}$ -->
      <defs>
       <path d="M 43.015625 15.578125
L 43.015625 0
L 34.71875 0
L 34.71875 15.578125
L 2.296875 15.578125
L 2.296875 22.40625
L 33.796875 68.796875
L 43.015625 68.796875
L 43.015625 22.515625
L 52.6875 22.515625
L 52.6875 15.578125
z
M 34.71875 58.890625
Q 34.625 58.59375 33.34375 56.296875
Q 32.078125 54 31.453125 53.078125
L 13.8125 27.09375
L 11.1875 23.484375
L 10.40625 22.515625
L 34.71875 22.515625
z
" id="LiberationSans-52"/>
      </defs>
      <g style="fill:#444950;" transform="translate(650.306587 684.68875)scale(0.15 -0.15)">
       <use transform="translate(0 0.171875)" xlink:href="#LiberationSans-54"/>
       <use transform="translate(55.615234 0.171875)" xlink:href="#LiberationSans-52"/>
      </g>
     </g>
    </g>
    <g id="xtick_5">
     <g id="line2d_9">
      <path clip-path="url(#pa31ec04a45)" d="M 838.913903 667.818438
L 838.913903 28.418438
" style="fill:none;stroke:#e6e2df;stroke-linecap:square;stroke-width:0.8;"/>
     </g>
     <g id="line2d_10"/>
     <g id="text_5">
      <!-- $\mathdefault{128}$ -->
      <g style="fill:#444950;" transform="translate(826.388903 684.68875)scale(0.15 -0.15)">
       <use transform="translate(0 0.171875)" xlink:href="#LiberationSans-49"/>
       <use transform="translate(55.615234 0.171875)" xlink:href="#LiberationSans-50"/>
       <use transform="translate(111.230469 0.171875)" xlink:href="#LiberationSans-56"/>
      </g>
     </g>
    </g>
    <g id="xtick_6">
     <g id="line2d_11">
      <path clip-path="url(#pa31ec04a45)" d="M 1019.121218 667.818438
L 1019.121218 28.418438
" style="fill:none;stroke:#e6e2df;stroke-linecap:square;stroke-width:0.8;"/>
     </g>
     <g id="line2d_12"/>
     <g id="text_6">
      <!-- $\mathdefault{256}$ -->
      <defs>
       <path d="M 51.421875 22.40625
Q 51.421875 11.53125 44.953125 5.265625
Q 38.484375 -0.984375 27 -0.984375
Q 17.390625 -0.984375 11.46875 3.21875
Q 5.5625 7.421875 4 15.375
L 12.890625 16.40625
Q 15.671875 6.203125 27.203125 6.203125
Q 34.28125 6.203125 38.28125 10.46875
Q 42.28125 14.75 42.28125 22.21875
Q 42.28125 28.71875 38.25 32.71875
Q 34.234375 36.71875 27.390625 36.71875
Q 23.828125 36.71875 20.75 35.59375
Q 17.671875 34.46875 14.59375 31.78125
L 6 31.78125
L 8.296875 68.796875
L 47.40625 68.796875
L 47.40625 61.328125
L 16.3125 61.328125
L 14.984375 39.5
Q 20.703125 43.890625 29.203125 43.890625
Q 39.359375 43.890625 45.390625 37.9375
Q 51.421875 31.984375 51.421875 22.40625
z
" id="LiberationSans-53"/>
      </defs>
      <g style="fill:#444950;" transform="translate(1006.596218 684.68875)scale(0.15 -0.15)">
       <use transform="translate(0 0.171875)" xlink:href="#LiberationSans-50"/>
       <use transform="translate(55.615234 0.171875)" xlink:href="#LiberationSans-53"/>
       <use transform="translate(111.230469 0.171875)" xlink:href="#LiberationSans-54"/>
      </g>
     </g>
    </g>
    <g id="text_7">
     <!-- Number of GPUs (8 per machine) -->
     <defs>
      <path d="M 52.828125 0
L 16.015625 58.59375
L 16.265625 53.859375
L 16.5 45.703125
L 16.5 0
L 8.203125 0
L 8.203125 68.796875
L 19.046875 68.796875
L 56.25 9.8125
Q 55.671875 19.390625 55.671875 23.6875
L 55.671875 68.796875
L 64.0625 68.796875
L 64.0625 0
z
" id="LiberationSans-78"/>
      <path d="M 15.328125 52.828125
L 15.328125 19.34375
Q 15.328125 14.109375 16.359375 11.21875
Q 17.390625 8.34375 19.625 7.078125
Q 21.875 5.8125 26.21875 5.8125
Q 32.5625 5.8125 36.21875 10.15625
Q 39.890625 14.5 39.890625 22.21875
L 39.890625 52.828125
L 48.6875 52.828125
L 48.6875 11.28125
Q 48.6875 2.046875 48.96875 0
L 40.671875 0
Q 40.625 0.25 40.578125 1.3125
Q 40.53125 2.390625 40.453125 3.78125
Q 40.375 5.171875 40.28125 9.03125
L 40.140625 9.03125
Q 37.109375 3.5625 33.125 1.28125
Q 29.15625 -0.984375 23.25 -0.984375
Q 14.546875 -0.984375 10.515625 3.34375
Q 6.5 7.671875 6.5 17.625
L 6.5 52.828125
z
" id="LiberationSans-117"/>
      <path d="M 37.5 0
L 37.5 33.5
Q 37.5 41.15625 35.390625 44.078125
Q 33.296875 47.015625 27.828125 47.015625
Q 22.21875 47.015625 18.9375 42.71875
Q 15.671875 38.421875 15.671875 30.609375
L 15.671875 0
L 6.9375 0
L 6.9375 41.546875
Q 6.9375 50.78125 6.640625 52.828125
L 14.9375 52.828125
Q 14.984375 52.59375 15.03125 51.515625
Q 15.09375 50.4375 15.15625 49.046875
Q 15.234375 47.65625 15.328125 43.796875
L 15.484375 43.796875
Q 18.3125 49.421875 21.96875 51.609375
Q 25.640625 53.8125 30.90625 53.8125
Q 36.921875 53.8125 40.40625 51.421875
Q 43.890625 49.03125 45.265625 43.796875
L 45.40625 43.796875
Q 48.140625 49.125 52.015625 51.46875
Q 55.90625 53.8125 61.421875 53.8125
Q 69.4375 53.8125 73.0625 49.46875
Q 76.703125 45.125 76.703125 35.203125
L 76.703125 0
L 68.015625 0
L 68.015625 33.5
Q 68.015625 41.15625 65.90625 44.078125
Q 63.8125 47.015625 58.34375 47.015625
Q 52.59375 47.015625 49.390625 42.75
Q 46.1875 38.484375 46.1875 30.609375
L 46.1875 0
z
" id="LiberationSans-109"/>
      <path d="M 51.421875 26.65625
Q 51.421875 -0.984375 31.984375 -0.984375
Q 25.984375 -0.984375 22 1.1875
Q 18.015625 3.375 15.53125 8.203125
L 15.4375 8.203125
Q 15.4375 6.6875 15.234375 3.578125
Q 15.046875 0.484375 14.9375 0
L 6.453125 0
Q 6.734375 2.640625 6.734375 10.890625
L 6.734375 72.46875
L 15.53125 72.46875
L 15.53125 51.8125
Q 15.53125 48.640625 15.328125 44.34375
L 15.53125 44.34375
Q 17.96875 49.421875 22 51.609375
Q 26.03125 53.8125 31.984375 53.8125
Q 42 53.8125 46.703125 47.0625
Q 51.421875 40.328125 51.421875 26.65625
z
M 42.1875 26.375
Q 42.1875 37.453125 39.25 42.234375
Q 36.328125 47.015625 29.734375 47.015625
Q 22.3125 47.015625 18.921875 41.9375
Q 15.53125 36.859375 15.53125 25.828125
Q 15.53125 15.4375 18.84375 10.46875
Q 22.171875 5.515625 29.640625 5.515625
Q 36.28125 5.515625 39.234375 10.421875
Q 42.1875 15.328125 42.1875 26.375
z
" id="LiberationSans-98"/>
      <path d="M 13.484375 24.5625
Q 13.484375 15.484375 17.234375 10.546875
Q 21 5.609375 28.21875 5.609375
Q 33.9375 5.609375 37.375 7.90625
Q 40.828125 10.203125 42.046875 13.71875
L 49.75 11.53125
Q 45.015625 -0.984375 28.21875 -0.984375
Q 16.5 -0.984375 10.375 6
Q 4.25 12.984375 4.25 26.765625
Q 4.25 39.84375 10.375 46.828125
Q 16.5 53.8125 27.875 53.8125
Q 51.171875 53.8125 51.171875 25.734375
L 51.171875 24.5625
z
M 42.09375 31.296875
Q 41.359375 39.65625 37.84375 43.484375
Q 34.328125 47.3125 27.734375 47.3125
Q 21.34375 47.3125 17.609375 43.03125
Q 13.875 38.765625 13.578125 31.296875
z
" id="LiberationSans-101"/>
      <path d="M 6.9375 0
L 6.9375 40.53125
Q 6.9375 46.09375 6.640625 52.828125
L 14.9375 52.828125
Q 15.328125 43.84375 15.328125 42.046875
L 15.53125 42.046875
Q 17.625 48.828125 20.359375 51.3125
Q 23.09375 53.8125 28.078125 53.8125
Q 29.828125 53.8125 31.640625 53.328125
L 31.640625 45.265625
Q 29.890625 45.75 26.953125 45.75
Q 21.484375 45.75 18.59375 41.03125
Q 15.71875 36.328125 15.71875 27.546875
L 15.71875 0
z
" id="LiberationSans-114"/>
      <path id="LiberationSans-32"/>
      <path d="M 51.421875 26.46875
Q 51.421875 12.59375 45.3125 5.796875
Q 39.203125 -0.984375 27.59375 -0.984375
Q 16.015625 -0.984375 10.109375 6.078125
Q 4.203125 13.140625 4.203125 26.46875
Q 4.203125 53.8125 27.875 53.8125
Q 39.984375 53.8125 45.703125 47.140625
Q 51.421875 40.484375 51.421875 26.46875
z
M 42.1875 26.46875
Q 42.1875 37.40625 38.9375 42.359375
Q 35.6875 47.3125 28.03125 47.3125
Q 20.3125 47.3125 16.859375 42.25
Q 13.421875 37.203125 13.421875 26.46875
Q 13.421875 16.015625 16.8125 10.765625
Q 20.21875 5.515625 27.484375 5.515625
Q 35.40625 5.515625 38.796875 10.59375
Q 42.1875 15.671875 42.1875 26.46875
z
" id="LiberationSans-111"/>
      <path d="M 17.625 46.4375
L 17.625 0
L 8.84375 0
L 8.84375 46.4375
L 1.421875 46.4375
L 1.421875 52.828125
L 8.84375 52.828125
L 8.84375 58.796875
Q 8.84375 66.015625 12.015625 69.1875
Q 15.1875 72.359375 21.734375 72.359375
Q 25.390625 72.359375 27.9375 71.78125
L 27.9375 65.09375
Q 25.734375 65.484375 24.03125 65.484375
Q 20.65625 65.484375 19.140625 63.765625
Q 17.625 62.0625 17.625 57.5625
L 17.625 52.828125
L 27.9375 52.828125
L 27.9375 46.4375
z
" id="LiberationSans-102"/>
      <path d="M 5.03125 34.71875
Q 5.03125 51.46875 14.015625 60.640625
Q 23 69.828125 39.265625 69.828125
Q 50.6875 69.828125 57.8125 65.96875
Q 64.9375 62.109375 68.796875 53.609375
L 59.90625 50.984375
Q 56.984375 56.84375 51.828125 59.515625
Q 46.6875 62.203125 39.015625 62.203125
Q 27.09375 62.203125 20.796875 55
Q 14.5 47.796875 14.5 34.71875
Q 14.5 21.6875 21.1875 14.140625
Q 27.875 6.59375 39.703125 6.59375
Q 46.4375 6.59375 52.265625 8.640625
Q 58.109375 10.6875 61.71875 14.203125
L 61.71875 26.609375
L 41.15625 26.609375
L 41.15625 34.421875
L 70.3125 34.421875
L 70.3125 10.6875
Q 64.84375 5.125 56.90625 2.0625
Q 48.96875 -0.984375 39.703125 -0.984375
Q 28.90625 -0.984375 21.09375 3.3125
Q 13.28125 7.625 9.15625 15.703125
Q 5.03125 23.78125 5.03125 34.71875
z
" id="LiberationSans-71"/>
      <path d="M 61.421875 48.09375
Q 61.421875 38.328125 55.046875 32.5625
Q 48.6875 26.8125 37.75 26.8125
L 17.53125 26.8125
L 17.53125 0
L 8.203125 0
L 8.203125 68.796875
L 37.15625 68.796875
Q 48.734375 68.796875 55.078125 63.375
Q 61.421875 57.953125 61.421875 48.09375
z
M 52.046875 48
Q 52.046875 61.328125 36.03125 61.328125
L 17.53125 61.328125
L 17.53125 34.1875
L 36.421875 34.1875
Q 52.046875 34.1875 52.046875 48
z
" id="LiberationSans-80"/>
      <path d="M 35.6875 -0.984375
Q 27.25 -0.984375 20.953125 2.09375
Q 14.65625 5.171875 11.1875 11.03125
Q 7.71875 16.890625 7.71875 25
L 7.71875 68.796875
L 17.046875 68.796875
L 17.046875 25.78125
Q 17.046875 16.359375 21.828125 11.46875
Q 26.609375 6.59375 35.640625 6.59375
Q 44.921875 6.59375 50.0625 11.640625
Q 55.21875 16.703125 55.21875 26.421875
L 55.21875 68.796875
L 64.5 68.796875
L 64.5 25.875
Q 64.5 17.53125 60.953125 11.46875
Q 57.421875 5.421875 50.953125 2.21875
Q 44.484375 -0.984375 35.6875 -0.984375
z
" id="LiberationSans-85"/>
      <path d="M 46.390625 14.59375
Q 46.390625 7.125 40.75 3.0625
Q 35.109375 -0.984375 24.953125 -0.984375
Q 15.09375 -0.984375 9.734375 2.265625
Q 4.390625 5.515625 2.78125 12.40625
L 10.546875 13.921875
Q 11.671875 9.671875 15.1875 7.6875
Q 18.703125 5.71875 24.953125 5.71875
Q 31.640625 5.71875 34.734375 7.765625
Q 37.84375 9.8125 37.84375 13.921875
Q 37.84375 17.046875 35.6875 19
Q 33.546875 20.953125 28.765625 22.21875
L 22.46875 23.875
Q 14.890625 25.828125 11.6875 27.703125
Q 8.5 29.59375 6.6875 32.28125
Q 4.890625 34.96875 4.890625 38.875
Q 4.890625 46.09375 10.03125 49.875
Q 15.1875 53.65625 25.046875 53.65625
Q 33.796875 53.65625 38.9375 50.578125
Q 44.09375 47.515625 45.453125 40.71875
L 37.546875 39.75
Q 36.8125 43.265625 33.609375 45.140625
Q 30.421875 47.015625 25.046875 47.015625
Q 19.09375 47.015625 16.25 45.203125
Q 13.421875 43.40625 13.421875 39.75
Q 13.421875 37.5 14.59375 36.03125
Q 15.765625 34.578125 18.0625 33.546875
Q 20.359375 32.515625 27.734375 30.71875
Q 34.71875 28.953125 37.796875 27.46875
Q 40.875 25.984375 42.65625 24.171875
Q 44.4375 22.359375 45.40625 19.984375
Q 46.390625 17.625 46.390625 14.59375
z
" id="LiberationSans-115"/>
      <path d="M 6.203125 25.984375
Q 6.203125 40.09375 10.625 51.3125
Q 15.046875 62.546875 24.21875 72.46875
L 32.71875 72.46875
Q 23.578125 62.3125 19.3125 50.875
Q 15.046875 39.453125 15.046875 25.875
Q 15.046875 12.359375 19.265625 0.96875
Q 23.484375 -10.40625 32.71875 -20.703125
L 24.21875 -20.703125
Q 14.984375 -10.75 10.59375 0.5
Q 6.203125 11.765625 6.203125 25.78125
z
" id="LiberationSans-40"/>
      <path d="M 51.421875 26.65625
Q 51.421875 -0.984375 31.984375 -0.984375
Q 19.78125 -0.984375 15.578125 8.203125
L 15.328125 8.203125
Q 15.53125 7.8125 15.53125 -0.09375
L 15.53125 -20.75
L 6.734375 -20.75
L 6.734375 42.046875
Q 6.734375 50.203125 6.453125 52.828125
L 14.9375 52.828125
Q 14.984375 52.640625 15.078125 51.4375
Q 15.1875 50.25 15.3125 47.75
Q 15.4375 45.265625 15.4375 44.34375
L 15.625 44.34375
Q 17.96875 49.21875 21.828125 51.484375
Q 25.6875 53.765625 31.984375 53.765625
Q 41.75 53.765625 46.578125 47.21875
Q 51.421875 40.671875 51.421875 26.65625
z
M 42.1875 26.46875
Q 42.1875 37.5 39.203125 42.234375
Q 36.234375 46.96875 29.734375 46.96875
Q 24.515625 46.96875 21.5625 44.765625
Q 18.609375 42.578125 17.0625 37.90625
Q 15.53125 33.25 15.53125 25.78125
Q 15.53125 15.375 18.84375 10.4375
Q 22.171875 5.515625 29.640625 5.515625
Q 36.1875 5.515625 39.1875 10.328125
Q 42.1875 15.140625 42.1875 26.46875
z
" id="LiberationSans-112"/>
      <path d="M 20.21875 -0.984375
Q 12.25 -0.984375 8.25 3.21875
Q 4.25 7.421875 4.25 14.75
Q 4.25 22.953125 9.640625 27.34375
Q 15.046875 31.734375 27.046875 32.03125
L 38.921875 32.234375
L 38.921875 35.109375
Q 38.921875 41.546875 36.1875 44.328125
Q 33.453125 47.125 27.59375 47.125
Q 21.6875 47.125 19 45.109375
Q 16.3125 43.109375 15.765625 38.71875
L 6.59375 39.546875
Q 8.84375 53.8125 27.78125 53.8125
Q 37.75 53.8125 42.765625 49.234375
Q 47.796875 44.671875 47.796875 36.03125
L 47.796875 13.28125
Q 47.796875 9.375 48.828125 7.390625
Q 49.859375 5.421875 52.734375 5.421875
Q 54 5.421875 55.609375 5.765625
L 55.609375 0.296875
Q 52.296875 -0.484375 48.828125 -0.484375
Q 43.953125 -0.484375 41.71875 2.078125
Q 39.5 4.640625 39.203125 10.109375
L 38.921875 10.109375
Q 35.546875 4.046875 31.078125 1.53125
Q 26.609375 -0.984375 20.21875 -0.984375
z
M 22.21875 5.609375
Q 27.046875 5.609375 30.8125 7.8125
Q 34.578125 10.015625 36.75 13.84375
Q 38.921875 17.671875 38.921875 21.734375
L 38.921875 26.078125
L 29.296875 25.875
Q 23.09375 25.78125 19.890625 24.609375
Q 16.703125 23.4375 14.984375 21
Q 13.28125 18.5625 13.28125 14.59375
Q 13.28125 10.296875 15.59375 7.953125
Q 17.921875 5.609375 22.21875 5.609375
z
" id="LiberationSans-97"/>
      <path d="M 13.421875 26.65625
Q 13.421875 16.109375 16.734375 11.03125
Q 20.0625 5.953125 26.765625 5.953125
Q 31.453125 5.953125 34.59375 8.484375
Q 37.75 11.03125 38.484375 16.3125
L 47.359375 15.71875
Q 46.34375 8.109375 40.875 3.5625
Q 35.40625 -0.984375 27 -0.984375
Q 15.921875 -0.984375 10.078125 6.015625
Q 4.25 13.03125 4.25 26.46875
Q 4.25 39.796875 10.109375 46.796875
Q 15.96875 53.8125 26.90625 53.8125
Q 35.015625 53.8125 40.359375 49.609375
Q 45.703125 45.40625 47.078125 38.03125
L 38.03125 37.359375
Q 37.359375 41.75 34.5625 44.328125
Q 31.78125 46.921875 26.65625 46.921875
Q 19.671875 46.921875 16.546875 42.28125
Q 13.421875 37.640625 13.421875 26.65625
z
" id="LiberationSans-99"/>
      <path d="M 15.484375 43.796875
Q 18.3125 48.96875 22.28125 51.390625
Q 26.265625 53.8125 32.375 53.8125
Q 40.96875 53.8125 45.046875 49.53125
Q 49.125 45.265625 49.125 35.203125
L 49.125 0
L 40.28125 0
L 40.28125 33.5
Q 40.28125 39.0625 39.25 41.765625
Q 38.234375 44.484375 35.890625 45.75
Q 33.546875 47.015625 29.390625 47.015625
Q 23.1875 47.015625 19.453125 42.71875
Q 15.71875 38.421875 15.71875 31.15625
L 15.71875 0
L 6.9375 0
L 6.9375 72.46875
L 15.71875 72.46875
L 15.71875 53.609375
Q 15.71875 50.640625 15.546875 47.453125
Q 15.375 44.28125 15.328125 43.796875
z
" id="LiberationSans-104"/>
      <path d="M 6.6875 64.0625
L 6.6875 72.46875
L 15.484375 72.46875
L 15.484375 64.0625
z
M 6.6875 0
L 6.6875 52.828125
L 15.484375 52.828125
L 15.484375 0
z
" id="LiberationSans-105"/>
      <path d="M 40.28125 0
L 40.28125 33.5
Q 40.28125 38.71875 39.25 41.59375
Q 38.234375 44.484375 35.984375 45.75
Q 33.734375 47.015625 29.390625 47.015625
Q 23.046875 47.015625 19.375 42.671875
Q 15.71875 38.328125 15.71875 30.609375
L 15.71875 0
L 6.9375 0
L 6.9375 41.546875
Q 6.9375 50.78125 6.640625 52.828125
L 14.9375 52.828125
Q 14.984375 52.59375 15.03125 51.515625
Q 15.09375 50.4375 15.15625 49.046875
Q 15.234375 47.65625 15.328125 43.796875
L 15.484375 43.796875
Q 18.5 49.265625 22.484375 51.53125
Q 26.46875 53.8125 32.375 53.8125
Q 41.0625 53.8125 45.09375 49.484375
Q 49.125 45.171875 49.125 35.203125
L 49.125 0
z
" id="LiberationSans-110"/>
      <path d="M 27.09375 25.78125
Q 27.09375 11.671875 22.671875 0.4375
Q 18.265625 -10.796875 9.078125 -20.703125
L 0.59375 -20.703125
Q 9.765625 -10.453125 14.015625 0.890625
Q 18.265625 12.25 18.265625 25.875
Q 18.265625 39.5 13.984375 50.875
Q 9.71875 62.25 0.59375 72.46875
L 9.078125 72.46875
Q 18.3125 62.5 22.703125 51.234375
Q 27.09375 39.984375 27.09375 25.984375
z
" id="LiberationSans-41"/>
     </defs>
     <g style="fill:#444950;" transform="translate(456.904492 702.671563)scale(0.15 -0.15)">
      <use xlink:href="#LiberationSans-78"/>
      <use x="72.216797" xlink:href="#LiberationSans-117"/>
      <use x="127.832031" xlink:href="#LiberationSans-109"/>
      <use x="211.132812" xlink:href="#LiberationSans-98"/>
      <use x="266.748047" xlink:href="#LiberationSans-101"/>
      <use x="322.363281" xlink:href="#LiberationSans-114"/>
      <use x="355.664062" xlink:href="#LiberationSans-32"/>
      <use x="383.447266" xlink:href="#LiberationSans-111"/>
      <use x="439.0625" xlink:href="#LiberationSans-102"/>
      <use x="466.845703" xlink:href="#LiberationSans-32"/>
      <use x="494.628906" xlink:href="#LiberationSans-71"/>
      <use x="572.412109" xlink:href="#LiberationSans-80"/>
      <use x="639.111328" xlink:href="#LiberationSans-85"/>
      <use x="711.328125" xlink:href="#LiberationSans-115"/>
      <use x="761.328125" xlink:href="#LiberationSans-32"/>
      <use x="789.111328" xlink:href="#LiberationSans-40"/>
      <use x="822.412109" xlink:href="#LiberationSans-56"/>
      <use x="878.027344" xlink:href="#LiberationSans-32"/>
      <use x="905.810547" xlink:href="#LiberationSans-112"/>
      <use x="961.425781" xlink:href="#LiberationSans-101"/>
      <use x="1017.041016" xlink:href="#LiberationSans-114"/>
      <use x="1050.341797" xlink:href="#LiberationSans-32"/>
      <use x="1078.125" xlink:href="#LiberationSans-109"/>
      <use x="1161.425781" xlink:href="#LiberationSans-97"/>
      <use x="1217.041016" xlink:href="#LiberationSans-99"/>
      <use x="1267.041016" xlink:href="#LiberationSans-104"/>
      <use x="1322.65625" xlink:href="#LiberationSans-105"/>
      <use x="1344.873047" xlink:href="#LiberationSans-110"/>
      <use x="1400.488281" xlink:href="#LiberationSans-101"/>
      <use x="1456.103516" xlink:href="#LiberationSans-41"/>
     </g>
    </g>
   </g>
   <g id="matplotlib.axis_2">
    <g id="ytick_1">
     <g id="line2d_13">
      <path clip-path="url(#pa31ec04a45)" d="M 73.032813 664.0837
L 1064.173047 664.0837
" style="fill:none;stroke:#e6e2df;stroke-linecap:square;stroke-width:0.8;"/>
     </g>
     <g id="line2d_14"/>
     <g id="text_8">
      <!-- $\mathdefault{0}$ -->
      <defs>
       <path d="M 51.703125 34.421875
Q 51.703125 17.1875 45.625 8.09375
Q 39.546875 -0.984375 27.6875 -0.984375
Q 15.828125 -0.984375 9.859375 8.046875
Q 3.90625 17.09375 3.90625 34.421875
Q 3.90625 52.15625 9.6875 60.984375
Q 15.484375 69.828125 27.984375 69.828125
Q 40.140625 69.828125 45.921875 60.890625
Q 51.703125 51.953125 51.703125 34.421875
z
M 42.78125 34.421875
Q 42.78125 49.3125 39.328125 56
Q 35.890625 62.703125 27.984375 62.703125
Q 19.875 62.703125 16.328125 56.109375
Q 12.796875 49.515625 12.796875 34.421875
Q 12.796875 19.78125 16.375 12.984375
Q 19.96875 6.203125 27.78125 6.203125
Q 35.546875 6.203125 39.15625 13.125
Q 42.78125 20.0625 42.78125 34.421875
z
" id="LiberationSans-48"/>
      </defs>
      <g style="fill:#444950;" transform="translate(58.632813 669.518856)scale(0.15 -0.15)">
       <use transform="translate(0 0.171875)" xlink:href="#LiberationSans-48"/>
      </g>
     </g>
    </g>
    <g id="ytick_2">
     <g id="line2d_15">
      <path clip-path="url(#pa31ec04a45)" d="M 73.032813 577.844744
L 1064.173047 577.844744
" style="fill:none;stroke:#e6e2df;stroke-linecap:square;stroke-width:0.8;"/>
     </g>
     <g id="line2d_16"/>
     <g id="text_9">
      <!-- $\mathdefault{10000}$ -->
      <g style="fill:#444950;" transform="translate(25.182813 583.2799)scale(0.15 -0.15)">
       <use transform="translate(0 0.171875)" xlink:href="#LiberationSans-49"/>
       <use transform="translate(55.615234 0.171875)" xlink:href="#LiberationSans-48"/>
       <use transform="translate(111.230469 0.171875)" xlink:href="#LiberationSans-48"/>
       <use transform="translate(166.845703 0.171875)" xlink:href="#LiberationSans-48"/>
       <use transform="translate(222.460938 0.171875)" xlink:href="#LiberationSans-48"/>
      </g>
     </g>
    </g>
    <g id="ytick_3">
     <g id="line2d_17">
      <path clip-path="url(#pa31ec04a45)" d="M 73.032813 491.605788
L 1064.173047 491.605788
" style="fill:none;stroke:#e6e2df;stroke-linecap:square;stroke-width:0.8;"/>
     </g>
     <g id="line2d_18"/>
     <g id="text_10">
      <!-- $\mathdefault{20000}$ -->
      <g style="fill:#444950;" transform="translate(25.182813 497.040944)scale(0.15 -0.15)">
       <use transform="translate(0 0.171875)" xlink:href="#LiberationSans-50"/>
       <use transform="translate(55.615234 0.171875)" xlink:href="#LiberationSans-48"/>
       <use transform="translate(111.230469 0.171875)" xlink:href="#LiberationSans-48"/>
       <use transform="translate(166.845703 0.171875)" xlink:href="#LiberationSans-48"/>
       <use transform="translate(222.460938 0.171875)" xlink:href="#LiberationSans-48"/>
      </g>
     </g>
    </g>
    <g id="ytick_4">
     <g id="line2d_19">
      <path clip-path="url(#pa31ec04a45)" d="M 73.032813 405.366832
L 1064.173047 405.366832
" style="fill:none;stroke:#e6e2df;stroke-linecap:square;stroke-width:0.8;"/>
     </g>
     <g id="line2d_20"/>
     <g id="text_11">
      <!-- $\mathdefault{30000}$ -->
      <g style="fill:#444950;" transform="translate(25.182813 410.801988)scale(0.15 -0.15)">
       <use transform="translate(0 0.171875)" xlink:href="#LiberationSans-51"/>
       <use transform="translate(55.615234 0.171875)" xlink:href="#LiberationSans-48"/>
       <use transform="translate(111.230469 0.171875)" xlink:href="#LiberationSans-48"/>
       <use transform="translate(166.845703 0.171875)" xlink:href="#LiberationSans-48"/>
       <use transform="translate(222.460938 0.171875)" xlink:href="#LiberationSans-48"/>
      </g>
     </g>
    </g>
    <g id="ytick_5">
     <g id="line2d_21">
      <path clip-path="url(#pa31ec04a45)" d="M 73.032813 319.127876
L 1064.173047 319.127876
" style="fill:none;stroke:#e6e2df;stroke-linecap:square;stroke-width:0.8;"/>
     </g>
     <g id="line2d_22"/>
     <g id="text_12">
      <!-- $\mathdefault{40000}$ -->
      <g style="fill:#444950;" transform="translate(25.182813 324.563032)scale(0.15 -0.15)">
       <use transform="translate(0 0.171875)" xlink:href="#LiberationSans-52"/>
       <use transform="translate(55.615234 0.171875)" xlink:href="#LiberationSans-48"/>
       <use transform="translate(111.230469 0.171875)" xlink:href="#LiberationSans-48"/>
       <use transform="translate(166.845703 0.171875)" xlink:href="#LiberationSans-48"/>
       <use transform="translate(222.460938 0.171875)" xlink:href="#LiberationSans-48"/>
      </g>
     </g>
    </g>
    <g id="ytick_6">
     <g id="line2d_23">
      <path clip-path="url(#pa31ec04a45)" d="M 73.032813 232.88892
L 1064.173047 232.88892
" style="fill:none;stroke:#e6e2df;stroke-linecap:square;stroke-width:0.8;"/>
     </g>
     <g id="line2d_24"/>
     <g id="text_13">
      <!-- $\mathdefault{50000}$ -->
      <g style="fill:#444950;" transform="translate(25.182813 238.324076)scale(0.15 -0.15)">
       <use transform="translate(0 0.171875)" xlink:href="#LiberationSans-53"/>
       <use transform="translate(55.615234 0.171875)" xlink:href="#LiberationSans-48"/>
       <use transform="translate(111.230469 0.171875)" xlink:href="#LiberationSans-48"/>
       <use transform="translate(166.845703 0.171875)" xlink:href="#LiberationSans-48"/>
       <use transform="translate(222.460938 0.171875)" xlink:href="#LiberationSans-48"/>
      </g>
     </g>
    </g>
    <g id="ytick_7">
     <g id="line2d_25">
      <path clip-path="url(#pa31ec04a45)" d="M 73.032813 146.649964
L 1064.173047 146.649964
" style="fill:none;stroke:#e6e2df;stroke-linecap:square;stroke-width:0.8;"/>
     </g>
     <g id="line2d_26"/>
     <g id="text_14">
      <!-- $\mathdefault{60000}$ -->
      <g style="fill:#444950;" transform="translate(25.182813 152.08512)scale(0.15 -0.15)">
       <use transform="translate(0 0.171875)" xlink:href="#LiberationSans-54"/>
       <use transform="translate(55.615234 0.171875)" xlink:href="#LiberationSans-48"/>
       <use transform="translate(111.230469 0.171875)" xlink:href="#LiberationSans-48"/>
       <use transform="translate(166.845703 0.171875)" xlink:href="#LiberationSans-48"/>
       <use transform="translate(222.460938 0.171875)" xlink:href="#LiberationSans-48"/>
      </g>
     </g>
    </g>
    <g id="ytick_8">
     <g id="line2d_27">
      <path clip-path="url(#pa31ec04a45)" d="M 73.032813 60.411008
L 1064.173047 60.411008
" style="fill:none;stroke:#e6e2df;stroke-linecap:square;stroke-width:0.8;"/>
     </g>
     <g id="line2d_28"/>
     <g id="text_15">
      <!-- $\mathdefault{70000}$ -->
      <defs>
       <path d="M 50.59375 61.671875
Q 40.046875 45.5625 35.6875 36.421875
Q 31.34375 27.296875 29.171875 18.40625
Q 27 9.515625 27 0
L 17.828125 0
Q 17.828125 13.1875 23.40625 27.75
Q 29 42.328125 42.09375 61.328125
L 5.125 61.328125
L 5.125 68.796875
L 50.59375 68.796875
z
" id="LiberationSans-55"/>
      </defs>
      <g style="fill:#444950;" transform="translate(25.182813 65.846164)scale(0.15 -0.15)">
       <use transform="translate(0 0.171875)" xlink:href="#LiberationSans-55"/>
       <use transform="translate(55.615234 0.171875)" xlink:href="#LiberationSans-48"/>
       <use transform="translate(111.230469 0.171875)" xlink:href="#LiberationSans-48"/>
       <use transform="translate(166.845703 0.171875)" xlink:href="#LiberationSans-48"/>
       <use transform="translate(222.460938 0.171875)" xlink:href="#LiberationSans-48"/>
      </g>
     </g>
    </g>
    <g id="text_16">
     <!-- Throughput (words per seconds) -->
     <defs>
      <path d="M 35.15625 61.1875
L 35.15625 0
L 25.875 0
L 25.875 61.1875
L 2.25 61.1875
L 2.25 68.796875
L 58.796875 68.796875
L 58.796875 61.1875
z
" id="LiberationSans-84"/>
      <path d="M 26.765625 -20.75
Q 18.109375 -20.75 12.984375 -17.359375
Q 7.859375 -13.96875 6.390625 -7.71875
L 15.234375 -6.453125
Q 16.109375 -10.109375 19.109375 -12.078125
Q 22.125 -14.0625 27 -14.0625
Q 40.140625 -14.0625 40.140625 1.3125
L 40.140625 9.8125
L 40.046875 9.8125
Q 37.546875 4.734375 33.203125 2.171875
Q 28.859375 -0.390625 23.046875 -0.390625
Q 13.328125 -0.390625 8.765625 6.046875
Q 4.203125 12.5 4.203125 26.3125
Q 4.203125 40.328125 9.109375 46.984375
Q 14.015625 53.65625 24.03125 53.65625
Q 29.640625 53.65625 33.765625 51.09375
Q 37.890625 48.53125 40.140625 43.796875
L 40.234375 43.796875
Q 40.234375 45.265625 40.421875 48.875
Q 40.625 52.484375 40.828125 52.828125
L 49.171875 52.828125
Q 48.875 50.203125 48.875 41.890625
L 48.875 1.515625
Q 48.875 -20.75 26.765625 -20.75
z
M 40.140625 26.421875
Q 40.140625 32.859375 38.375 37.515625
Q 36.625 42.1875 33.421875 44.65625
Q 30.21875 47.125 26.171875 47.125
Q 19.4375 47.125 16.359375 42.234375
Q 13.28125 37.359375 13.28125 26.421875
Q 13.28125 15.578125 16.15625 10.84375
Q 19.046875 6.109375 26.03125 6.109375
Q 30.171875 6.109375 33.390625 8.546875
Q 36.625 10.984375 38.375 15.546875
Q 40.140625 20.125 40.140625 26.421875
z
" id="LiberationSans-103"/>
      <path d="M 27.046875 0.390625
Q 22.703125 -0.78125 18.171875 -0.78125
Q 7.625 -0.78125 7.625 11.1875
L 7.625 46.4375
L 1.515625 46.4375
L 1.515625 52.828125
L 7.953125 52.828125
L 10.546875 64.65625
L 16.40625 64.65625
L 16.40625 52.828125
L 26.171875 52.828125
L 26.171875 46.4375
L 16.40625 46.4375
L 16.40625 13.09375
Q 16.40625 9.28125 17.640625 7.734375
Q 18.890625 6.203125 21.96875 6.203125
Q 23.734375 6.203125 27.046875 6.890625
z
" id="LiberationSans-116"/>
      <path d="M 57.328125 0
L 47.125 0
L 37.890625 37.359375
L 36.140625 45.609375
Q 35.6875 43.40625 34.765625 39.28125
Q 33.84375 35.15625 24.8125 0
L 14.65625 0
L -0.140625 52.828125
L 8.546875 52.828125
L 17.484375 16.9375
Q 17.828125 15.765625 19.578125 7.28125
L 20.40625 10.890625
L 31.453125 52.828125
L 40.875 52.828125
L 50.09375 16.546875
L 52.34375 7.28125
L 53.859375 14.0625
L 63.875 52.828125
L 72.46875 52.828125
z
" id="LiberationSans-119"/>
      <path d="M 40.09375 8.5
Q 37.640625 3.421875 33.609375 1.21875
Q 29.59375 -0.984375 23.640625 -0.984375
Q 13.625 -0.984375 8.90625 5.75
Q 4.203125 12.5 4.203125 26.171875
Q 4.203125 53.8125 23.640625 53.8125
Q 29.640625 53.8125 33.640625 51.609375
Q 37.640625 49.421875 40.09375 44.625
L 40.1875 44.625
L 40.09375 50.53125
L 40.09375 72.46875
L 48.875 72.46875
L 48.875 10.890625
Q 48.875 2.640625 49.171875 0
L 40.765625 0
Q 40.625 0.78125 40.453125 3.609375
Q 40.28125 6.453125 40.28125 8.5
z
M 13.421875 26.46875
Q 13.421875 15.375 16.34375 10.59375
Q 19.28125 5.8125 25.875 5.8125
Q 33.34375 5.8125 36.71875 10.984375
Q 40.09375 16.15625 40.09375 27.046875
Q 40.09375 37.546875 36.71875 42.421875
Q 33.34375 47.3125 25.984375 47.3125
Q 19.34375 47.3125 16.375 42.40625
Q 13.421875 37.5 13.421875 26.46875
z
" id="LiberationSans-100"/>
     </defs>
     <g style="fill:#444950;" transform="translate(18.070312 456.496953)rotate(-90)scale(0.15 -0.15)">
      <use xlink:href="#LiberationSans-84"/>
      <use x="61.083984" xlink:href="#LiberationSans-104"/>
      <use x="116.699219" xlink:href="#LiberationSans-114"/>
      <use x="150" xlink:href="#LiberationSans-111"/>
      <use x="205.615234" xlink:href="#LiberationSans-117"/>
      <use x="261.230469" xlink:href="#LiberationSans-103"/>
      <use x="316.845703" xlink:href="#LiberationSans-104"/>
      <use x="372.460938" xlink:href="#LiberationSans-112"/>
      <use x="428.076172" xlink:href="#LiberationSans-117"/>
      <use x="483.691406" xlink:href="#LiberationSans-116"/>
      <use x="511.474609" xlink:href="#LiberationSans-32"/>
      <use x="539.257812" xlink:href="#LiberationSans-40"/>
      <use x="572.558594" xlink:href="#LiberationSans-119"/>
      <use x="644.775391" xlink:href="#LiberationSans-111"/>
      <use x="700.390625" xlink:href="#LiberationSans-114"/>
      <use x="733.691406" xlink:href="#LiberationSans-100"/>
      <use x="789.306641" xlink:href="#LiberationSans-115"/>
      <use x="839.306641" xlink:href="#LiberationSans-32"/>
      <use x="867.089844" xlink:href="#LiberationSans-112"/>
      <use x="922.705078" xlink:href="#LiberationSans-101"/>
      <use x="978.320312" xlink:href="#LiberationSans-114"/>
      <use x="1011.621094" xlink:href="#LiberationSans-32"/>
      <use x="1039.404297" xlink:href="#LiberationSans-115"/>
      <use x="1089.404297" xlink:href="#LiberationSans-101"/>
      <use x="1145.019531" xlink:href="#LiberationSans-99"/>
      <use x="1195.019531" xlink:href="#LiberationSans-111"/>
      <use x="1250.634766" xlink:href="#LiberationSans-110"/>
      <use x="1306.25" xlink:href="#LiberationSans-100"/>
      <use x="1361.865234" xlink:href="#LiberationSans-115"/>
      <use x="1411.865234" xlink:href="#LiberationSans-41"/>
     </g>
    </g>
   </g>
   <g id="line2d_29">
    <path clip-path="url(#pa31ec04a45)" d="M 118.084641 630.557616
L 298.291957 617.904291
L 478.499272 604.113561
L 658.706587 561.8563
L 838.913903 405.865724
L 1019.121218 57.482074
" style="fill:none;stroke:#4285f4;stroke-linecap:square;stroke-width:2;"/>
    <defs>
     <path d="M 0 3
C 0.795609 3 1.55874 2.683901 2.12132 2.12132
C 2.683901 1.55874 3 0.795609 3 0
C 3 -0.795609 2.683901 -1.55874 2.12132 -2.12132
C 1.55874 -2.683901 0.795609 -3 0 -3
C -0.795609 -3 -1.55874 -2.683901 -2.12132 -2.12132
C -2.683901 -1.55874 -3 -0.795609 -3 0
C -3 0.795609 -2.683901 1.55874 -2.12132 2.12132
C -1.55874 2.683901 -0.795609 3 0 3
z
" id="m30e3b2ffcf" style="stroke:#4285f4;"/>
    </defs>
    <g clip-path="url(#pa31ec04a45)">
     <use style="fill:#4285f4;stroke:#4285f4;" x="118.084641" xlink:href="#m30e3b2ffcf" y="630.557616"/>
     <use style="fill:#4285f4;stroke:#4285f4;" x="298.291957" xlink:href="#m30e3b2ffcf" y="617.904291"/>
     <use style="fill:#4285f4;stroke:#4285f4;" x="478.499272" xlink:href="#m30e3b2ffcf" y="604.113561"/>
     <use style="fill:#4285f4;stroke:#4285f4;" x="658.706587" xlink:href="#m30e3b2ffcf" y="561.8563"/>
     <use style="fill:#4285f4;stroke:#4285f4;" x="838.913903" xlink:href="#m30e3b2ffcf" y="405.865724"/>
     <use style="fill:#4285f4;stroke:#4285f4;" x="1019.121218" xlink:href="#m30e3b2ffcf" y="57.482074"/>
    </g>
   </g>
   <g id="line2d_30">
    <path clip-path="url(#pa31ec04a45)" d="M 118.084641 638.754801
L 298.291957 612.301433
L 478.499272 572.412552
L 658.706587 518.078301
L 838.913903 414.163378
L 1019.121218 383.822012
" style="fill:none;stroke:#ea4335;stroke-linecap:square;stroke-width:2;"/>
    <defs>
     <path d="M 0 3
C 0.795609 3 1.55874 2.683901 2.12132 2.12132
C 2.683901 1.55874 3 0.795609 3 0
C 3 -0.795609 2.683901 -1.55874 2.12132 -2.12132
C 1.55874 -2.683901 0.795609 -3 0 -3
C -0.795609 -3 -1.55874 -2.683901 -2.12132 -2.12132
C -2.683901 -1.55874 -3 -0.795609 -3 0
C -3 0.795609 -2.683901 1.55874 -2.12132 2.12132
C -1.55874 2.683901 -0.795609 3 0 3
z
" id="m004478e832" style="stroke:#ea4335;"/>
    </defs>
    <g clip-path="url(#pa31ec04a45)">
     <use style="fill:#ea4335;stroke:#ea4335;" x="118.084641" xlink:href="#m004478e832" y="638.754801"/>
     <use style="fill:#ea4335;stroke:#ea4335;" x="298.291957" xlink:href="#m004478e832" y="612.301433"/>
     <use style="fill:#ea4335;stroke:#ea4335;" x="478.499272" xlink:href="#m004478e832" y="572.412552"/>
     <use style="fill:#ea4335;stroke:#ea4335;" x="658.706587" xlink:href="#m004478e832" y="518.078301"/>
     <use style="fill:#ea4335;stroke:#ea4335;" x="838.913903" xlink:href="#m004478e832" y="414.163378"/>
     <use style="fill:#ea4335;stroke:#ea4335;" x="1019.121218" xlink:href="#m004478e832" y="383.822012"/>
    </g>
   </g>
   <g id="patch_3">
    <path d="M 73.032813 667.818438
L 73.032813 28.418437
" style="fill:none;"/>
   </g>
   <g id="patch_4">
    <path d="M 1064.173047 667.818438
L 1064.173047 28.418437
" style="fill:none;"/>
   </g>
   <g id="patch_5">
    <path d="M 73.032813 667.818438
L 1064.173047 667.818438
" style="fill:none;"/>
   </g>
   <g id="patch_6">
    <path d="M 73.032813 28.418438
L 1064.173047 28.418438
" style="fill:none;"/>
   </g>
   <g id="text_17">
    <!-- −24.45% -->
    <defs>
     <path d="M 4.9375 29.6875
L 4.9375 36.8125
L 53.515625 36.8125
L 53.515625 29.6875
z
" id="LiberationSans-8722"/>
     <path d="M 9.125 0
L 9.125 10.6875
L 18.65625 10.6875
L 18.65625 0
z
" id="LiberationSans-46"/>
     <path d="M 85.359375 21.1875
Q 85.359375 10.6875 81.390625 5.046875
Q 77.4375 -0.59375 69.734375 -0.59375
Q 62.109375 -0.59375 58.21875 4.90625
Q 54.34375 10.40625 54.34375 21.1875
Q 54.34375 32.328125 58.078125 37.765625
Q 61.8125 43.21875 69.921875 43.21875
Q 77.9375 43.21875 81.640625 37.625
Q 85.359375 32.03125 85.359375 21.1875
z
M 25.734375 0
L 18.171875 0
L 63.1875 68.796875
L 70.84375 68.796875
z
M 19.234375 69.390625
Q 27 69.390625 30.75 63.921875
Q 34.515625 58.453125 34.515625 47.609375
Q 34.515625 37.015625 30.640625 31.296875
Q 26.765625 25.59375 19.046875 25.59375
Q 11.328125 25.59375 7.4375 31.25
Q 3.5625 36.921875 3.5625 47.609375
Q 3.5625 58.5 7.3125 63.9375
Q 11.078125 69.390625 19.234375 69.390625
z
M 78.125 21.1875
Q 78.125 29.9375 76.234375 33.859375
Q 74.359375 37.796875 69.921875 37.796875
Q 65.484375 37.796875 63.5 33.9375
Q 61.53125 30.078125 61.53125 21.1875
Q 61.53125 12.84375 63.453125 8.8125
Q 65.375 4.78125 69.828125 4.78125
Q 74.125 4.78125 76.125 8.859375
Q 78.125 12.9375 78.125 21.1875
z
M 27.34375 47.609375
Q 27.34375 56.203125 25.484375 60.15625
Q 23.640625 64.109375 19.234375 64.109375
Q 14.65625 64.109375 12.703125 60.21875
Q 10.75 56.34375 10.75 47.609375
Q 10.75 39.15625 12.703125 35.125
Q 14.65625 31.109375 19.140625 31.109375
Q 23.390625 31.109375 25.359375 35.203125
Q 27.34375 39.3125 27.34375 47.609375
z
" id="LiberationSans-37"/>
    </defs>
    <g style="fill:#444950;" transform="translate(83.736591 618.754801)scale(0.1728 -0.1728)">
     <use xlink:href="#LiberationSans-8722"/>
     <use x="58.398438" xlink:href="#LiberationSans-50"/>
     <use x="114.013672" xlink:href="#LiberationSans-52"/>
     <use x="169.628906" xlink:href="#LiberationSans-46"/>
     <use x="197.412109" xlink:href="#LiberationSans-52"/>
     <use x="253.027344" xlink:href="#LiberationSans-53"/>
     <use x="308.642578" xlink:href="#LiberationSans-37"/>
    </g>
   </g>
   <g id="text_18">
    <!-- +12.13% -->
    <defs>
     <path d="M 32.765625 29.6875
L 32.765625 8.796875
L 25.59375 8.796875
L 25.59375 29.6875
L 4.890625 29.6875
L 4.890625 36.8125
L 25.59375 36.8125
L 25.59375 57.71875
L 32.765625 57.71875
L 32.765625 36.8125
L 53.46875 36.8125
L 53.46875 29.6875
z
" id="LiberationSans-43"/>
    </defs>
    <g style="fill:#444950;" transform="translate(263.943907 592.301433)scale(0.1728 -0.1728)">
     <use xlink:href="#LiberationSans-43"/>
     <use x="58.398438" xlink:href="#LiberationSans-49"/>
     <use x="114.013672" xlink:href="#LiberationSans-50"/>
     <use x="169.628906" xlink:href="#LiberationSans-46"/>
     <use x="197.412109" xlink:href="#LiberationSans-49"/>
     <use x="253.027344" xlink:href="#LiberationSans-51"/>
     <use x="308.642578" xlink:href="#LiberationSans-37"/>
    </g>
   </g>
   <g id="text_19">
    <!-- +52.86% -->
    <g style="fill:#444950;" transform="translate(444.151222 552.412552)scale(0.1728 -0.1728)">
     <use xlink:href="#LiberationSans-43"/>
     <use x="58.398438" xlink:href="#LiberationSans-53"/>
     <use x="114.013672" xlink:href="#LiberationSans-50"/>
     <use x="169.628906" xlink:href="#LiberationSans-46"/>
     <use x="197.412109" xlink:href="#LiberationSans-56"/>
     <use x="253.027344" xlink:href="#LiberationSans-54"/>
     <use x="308.642578" xlink:href="#LiberationSans-37"/>
    </g>
   </g>
   <g id="text_20">
    <!-- +42.82% -->
    <g style="fill:#444950;" transform="translate(624.358537 498.078301)scale(0.1728 -0.1728)">
     <use xlink:href="#LiberationSans-43"/>
     <use x="58.398438" xlink:href="#LiberationSans-52"/>
     <use x="114.013672" xlink:href="#LiberationSans-50"/>
     <use x="169.628906" xlink:href="#LiberationSans-46"/>
     <use x="197.412109" xlink:href="#LiberationSans-56"/>
     <use x="253.027344" xlink:href="#LiberationSans-50"/>
     <use x="308.642578" xlink:href="#LiberationSans-37"/>
    </g>
   </g>
   <g id="text_21">
    <!-- −3.21% -->
    <g style="fill:#444950;" transform="translate(809.370503 394.163378)scale(0.1728 -0.1728)">
     <use xlink:href="#LiberationSans-8722"/>
     <use x="58.398438" xlink:href="#LiberationSans-51"/>
     <use x="114.013672" xlink:href="#LiberationSans-46"/>
     <use x="141.796875" xlink:href="#LiberationSans-50"/>
     <use x="197.412109" xlink:href="#LiberationSans-49"/>
     <use x="253.027344" xlink:href="#LiberationSans-37"/>
    </g>
   </g>
   <g id="text_22">
    <!-- −53.80% -->
    <g style="fill:#444950;" transform="translate(984.773168 363.822012)scale(0.1728 -0.1728)">
     <use xlink:href="#LiberationSans-8722"/>
     <use x="58.398438" xlink:href="#LiberationSans-53"/>
     <use x="114.013672" xlink:href="#LiberationSans-51"/>
     <use x="169.628906" xlink:href="#LiberationSans-46"/>
     <use x="197.412109" xlink:href="#LiberationSans-56"/>
     <use x="253.027344" xlink:href="#LiberationSans-48"/>
     <use x="308.642578" xlink:href="#LiberationSans-37"/>
    </g>
   </g>
   <g id="text_23">
    <!-- Training throughput of a Transformer Model (1.37B) -->
    <defs>
     <path d="M 66.703125 0
L 66.703125 45.90625
Q 66.703125 53.515625 67.140625 60.546875
Q 64.75 51.8125 62.84375 46.875
L 45.0625 0
L 38.53125 0
L 20.515625 46.875
L 17.78125 55.171875
L 16.15625 60.546875
L 16.3125 55.125
L 16.5 45.90625
L 16.5 0
L 8.203125 0
L 8.203125 68.796875
L 20.453125 68.796875
L 38.765625 21.09375
Q 39.75 18.21875 40.640625 14.921875
Q 41.546875 11.625 41.84375 10.15625
Q 42.234375 12.109375 43.484375 16.078125
Q 44.734375 20.0625 45.171875 21.09375
L 63.140625 68.796875
L 75.09375 68.796875
L 75.09375 0
z
" id="LiberationSans-77"/>
     <path d="M 6.734375 0
L 6.734375 72.46875
L 15.53125 72.46875
L 15.53125 0
z
" id="LiberationSans-108"/>
     <path d="M 61.421875 19.390625
Q 61.421875 10.203125 54.734375 5.09375
Q 48.046875 0 36.140625 0
L 8.203125 0
L 8.203125 68.796875
L 33.203125 68.796875
Q 57.421875 68.796875 57.421875 52.09375
Q 57.421875 46 54 41.84375
Q 50.59375 37.703125 44.34375 36.28125
Q 52.546875 35.296875 56.984375 30.78125
Q 61.421875 26.265625 61.421875 19.390625
z
M 48.046875 50.984375
Q 48.046875 56.546875 44.234375 58.9375
Q 40.4375 61.328125 33.203125 61.328125
L 17.53125 61.328125
L 17.53125 39.546875
L 33.203125 39.546875
Q 40.671875 39.546875 44.359375 42.359375
Q 48.046875 45.171875 48.046875 50.984375
z
M 52 20.125
Q 52 32.28125 34.90625 32.28125
L 17.53125 32.28125
L 17.53125 7.46875
L 35.640625 7.46875
Q 44.1875 7.46875 48.09375 10.640625
Q 52 13.8125 52 20.125
z
" id="LiberationSans-66"/>
    </defs>
    <g style="fill:#444950;" transform="translate(328.185742 22.418438)scale(0.21 -0.21)">
     <use xlink:href="#LiberationSans-84"/>
     <use x="61.037109" xlink:href="#LiberationSans-114"/>
     <use x="94.337891" xlink:href="#LiberationSans-97"/>
     <use x="149.953125" xlink:href="#LiberationSans-105"/>
     <use x="172.169922" xlink:href="#LiberationSans-110"/>
     <use x="227.785156" xlink:href="#LiberationSans-105"/>
     <use x="250.001953" xlink:href="#LiberationSans-110"/>
     <use x="305.617188" xlink:href="#LiberationSans-103"/>
     <use x="361.232422" xlink:href="#LiberationSans-32"/>
     <use x="389.015625" xlink:href="#LiberationSans-116"/>
     <use x="416.798828" xlink:href="#LiberationSans-104"/>
     <use x="472.414062" xlink:href="#LiberationSans-114"/>
     <use x="505.714844" xlink:href="#LiberationSans-111"/>
     <use x="561.330078" xlink:href="#LiberationSans-117"/>
     <use x="616.945312" xlink:href="#LiberationSans-103"/>
     <use x="672.560547" xlink:href="#LiberationSans-104"/>
     <use x="728.175781" xlink:href="#LiberationSans-112"/>
     <use x="783.791016" xlink:href="#LiberationSans-117"/>
     <use x="839.40625" xlink:href="#LiberationSans-116"/>
     <use x="867.189453" xlink:href="#LiberationSans-32"/>
     <use x="894.972656" xlink:href="#LiberationSans-111"/>
     <use x="950.587891" xlink:href="#LiberationSans-102"/>
     <use x="978.371094" xlink:href="#LiberationSans-32"/>
     <use x="1006.154297" xlink:href="#LiberationSans-97"/>
     <use x="1061.769531" xlink:href="#LiberationSans-32"/>
     <use x="1089.537109" xlink:href="#LiberationSans-84"/>
     <use x="1150.574219" xlink:href="#LiberationSans-114"/>
     <use x="1183.875" xlink:href="#LiberationSans-97"/>
     <use x="1239.490234" xlink:href="#LiberationSans-110"/>
     <use x="1295.105469" xlink:href="#LiberationSans-115"/>
     <use x="1345.105469" xlink:href="#LiberationSans-102"/>
     <use x="1372.888672" xlink:href="#LiberationSans-111"/>
     <use x="1428.503906" xlink:href="#LiberationSans-114"/>
     <use x="1461.804688" xlink:href="#LiberationSans-109"/>
     <use x="1545.105469" xlink:href="#LiberationSans-101"/>
     <use x="1600.720703" xlink:href="#LiberationSans-114"/>
     <use x="1634.021484" xlink:href="#LiberationSans-32"/>
     <use x="1661.804688" xlink:href="#LiberationSans-77"/>
     <use x="1745.105469" xlink:href="#LiberationSans-111"/>
     <use x="1800.720703" xlink:href="#LiberationSans-100"/>
     <use x="1856.335938" xlink:href="#LiberationSans-101"/>
     <use x="1911.951172" xlink:href="#LiberationSans-108"/>
     <use x="1934.167969" xlink:href="#LiberationSans-32"/>
     <use x="1961.951172" xlink:href="#LiberationSans-40"/>
     <use x="1995.251953" xlink:href="#LiberationSans-49"/>
     <use x="2050.867188" xlink:href="#LiberationSans-46"/>
     <use x="2078.650391" xlink:href="#LiberationSans-51"/>
     <use x="2134.265625" xlink:href="#LiberationSans-55"/>
     <use x="2189.880859" xlink:href="#LiberationSans-66"/>
     <use x="2256.580078" xlink:href="#LiberationSans-41"/>
    </g>
   </g>
   <g id="legend_1">
    <g id="patch_7">
     <path d="M 808.221147 659.178438
L 1052.077047 659.178438
Q 1055.533047 659.178438 1055.533047 655.722438
L 1055.533047 632.702238
Q 1055.533047 629.246238 1052.077047 629.246238
L 808.221147 629.246238
Q 804.765147 629.246238 804.765147 632.702238
L 804.765147 655.722438
Q 804.765147 659.178438 808.221147 659.178438
z
" style="fill:#ffffff;opacity:0.8;stroke:#cccccc;stroke-linejoin:miter;stroke-width:0.5;"/>
    </g>
    <g id="line2d_31">
     <path d="M 811.677147 642.632838
L 846.237147 642.632838
" style="fill:none;stroke:#4285f4;stroke-linecap:square;stroke-width:2;"/>
    </g>
    <g id="line2d_32">
     <g>
      <use style="fill:#4285f4;stroke:#4285f4;" x="828.957147" xlink:href="#m30e3b2ffcf" y="642.632838"/>
     </g>
    </g>
    <g id="text_24">
     <!-- NCCL -->
     <defs>
      <path d="M 38.671875 62.203125
Q 27.25 62.203125 20.890625 54.859375
Q 14.546875 47.515625 14.546875 34.71875
Q 14.546875 22.078125 21.15625 14.375
Q 27.78125 6.6875 39.0625 6.6875
Q 53.515625 6.6875 60.796875 21
L 68.40625 17.1875
Q 64.15625 8.296875 56.46875 3.65625
Q 48.78125 -0.984375 38.625 -0.984375
Q 28.21875 -0.984375 20.625 3.34375
Q 13.03125 7.671875 9.046875 15.703125
Q 5.078125 23.734375 5.078125 34.71875
Q 5.078125 51.171875 13.96875 60.5
Q 22.859375 69.828125 38.578125 69.828125
Q 49.5625 69.828125 56.9375 65.53125
Q 64.3125 61.234375 67.78125 52.78125
L 58.9375 49.859375
Q 56.546875 55.859375 51.25 59.03125
Q 45.953125 62.203125 38.671875 62.203125
z
" id="LiberationSans-67"/>
      <path d="M 8.203125 0
L 8.203125 68.796875
L 17.53125 68.796875
L 17.53125 7.625
L 52.296875 7.625
L 52.296875 0
z
" id="LiberationSans-76"/>
     </defs>
     <g style="fill:#444950;" transform="translate(860.061147 648.680838)scale(0.1728 -0.1728)">
      <use xlink:href="#LiberationSans-78"/>
      <use x="72.216797" xlink:href="#LiberationSans-67"/>
      <use x="144.433594" xlink:href="#LiberationSans-67"/>
      <use x="216.650391" xlink:href="#LiberationSans-76"/>
     </g>
    </g>
    <g id="line2d_33">
     <path d="M 941.668647 642.632838
L 976.228647 642.632838
" style="fill:none;stroke:#ea4335;stroke-linecap:square;stroke-width:2;"/>
    </g>
    <g id="line2d_34">
     <g>
      <use style="fill:#ea4335;stroke:#ea4335;" x="958.948647" xlink:href="#m004478e832" y="642.632838"/>
     </g>
    </g>
    <g id="text_25">
     <!-- Fairring -->
     <defs>
      <path d="M 17.53125 61.1875
L 17.53125 35.59375
L 55.90625 35.59375
L 55.90625 27.875
L 17.53125 27.875
L 17.53125 0
L 8.203125 0
L 8.203125 68.796875
L 57.078125 68.796875
L 57.078125 61.1875
z
" id="LiberationSans-70"/>
     </defs>
     <g style="fill:#444950;" transform="translate(990.052647 648.680838)scale(0.1728 -0.1728)">
      <use xlink:href="#LiberationSans-70"/>
      <use x="61.083984" xlink:href="#LiberationSans-97"/>
      <use x="116.699219" xlink:href="#LiberationSans-105"/>
      <use x="138.916016" xlink:href="#LiberationSans-114"/>
      <use x="172.216797" xlink:href="#LiberationSans-114"/>
      <use x="205.517578" xlink:href="#LiberationSans-105"/>
      <use x="227.734375" xlink:href="#LiberationSans-110"/>
      <use x="283.349609" xlink:href="#LiberationSans-103"/>
     </g>
    </g>
   </g>
  </g>
 </g>
 <defs>
  <clipPath id="pa31ec04a45">
   <rect height="639.4" width="991.140234" x="73.032813" y="28.418438"/>
  </clipPath>
 </defs>
</svg>
