<?xml version="1.0" encoding="utf-8" standalone="no"?>
<!DOCTYPE svg PUBLIC "-//W3C//DTD SVG 1.1//EN"
  "http://www.w3.org/Graphics/SVG/1.1/DTD/svg11.dtd">
<!-- Created with matplotlib (https://matplotlib.org/) -->
<svg height="708.07552pt" version="1.1" viewBox="0 0 1072.599219 708.07552" width="1072.599219pt" xmlns="http://www.w3.org/2000/svg" xmlns:xlink="http://www.w3.org/1999/xlink">
 <defs>
  <style type="text/css">
*{stroke-linecap:butt;stroke-linejoin:round;}
  </style>
 </defs>
 <g id="figure_1">
  <g id="patch_1">
   <path d="M 0 708.07552
L 1072.599219 708.07552
L 1072.599219 0
L 0 0
z
" style="fill:#ffffff;"/>
  </g>
  <g id="axes_1">
   <g id="patch_2">
    <path d="M 60.374219 662.909895
L 1065.399219 662.909895
L 1065.399219 12.481351
L 60.374219 12.481351
z
" style="fill:#ffffff;"/>
   </g>
   <g id="matplotlib.axis_1">
    <g id="xtick_1">
     <g id="line2d_1">
      <path clip-path="url(#p3ab2b39918)" d="M 103.824209 662.909895
L 103.824209 12.481351
" style="fill:none;stroke:#e6e2df;stroke-linecap:square;stroke-width:0.8;"/>
     </g>
     <g id="line2d_2"/>
     <g id="text_1">
      <!-- $\mathdefault{10^{5}}$ -->
      <defs>
       <path d="M 7.625 0
L 7.625 7.46875
L 25.140625 7.46875
L 25.140625 60.40625
L 9.625 49.3125
L 9.625 57.625
L 25.875 68.796875
L 33.984375 68.796875
L 33.984375 7.46875
L 50.734375 7.46875
L 50.734375 0
z
" id="LiberationSans-49"/>
       <path d="M 51.703125 34.421875
Q 51.703125 17.1875 45.625 8.09375
Q 39.546875 -0.984375 27.6875 -0.984375
Q 15.828125 -0.984375 9.859375 8.046875
Q 3.90625 17.09375 3.90625 34.421875
Q 3.90625 52.15625 9.6875 60.984375
Q 15.484375 69.828125 27.984375 69.828125
Q 40.140625 69.828125 45.921875 60.890625
Q 51.703125 51.953125 51.703125 34.421875
z
M 42.78125 34.421875
Q 42.78125 49.3125 39.328125 56
Q 35.890625 62.703125 27.984375 62.703125
Q 19.875 62.703125 16.328125 56.109375
Q 12.796875 49.515625 12.796875 34.421875
Q 12.796875 19.78125 16.375 12.984375
Q 19.96875 6.203125 27.78125 6.203125
Q 35.546875 6.203125 39.15625 13.125
Q 42.78125 20.0625 42.78125 34.421875
z
" id="LiberationSans-48"/>
       <path d="M 51.421875 22.40625
Q 51.421875 11.53125 44.953125 5.265625
Q 38.484375 -0.984375 27 -0.984375
Q 17.390625 -0.984375 11.46875 3.21875
Q 5.5625 7.421875 4 15.375
L 12.890625 16.40625
Q 15.671875 6.203125 27.203125 6.203125
Q 34.28125 6.203125 38.28125 10.46875
Q 42.28125 14.75 42.28125 22.21875
Q 42.28125 28.71875 38.25 32.71875
Q 34.234375 36.71875 27.390625 36.71875
Q 23.828125 36.71875 20.75 35.59375
Q 17.671875 34.46875 14.59375 31.78125
L 6 31.78125
L 8.296875 68.796875
L 47.40625 68.796875
L 47.40625 61.328125
L 16.3125 61.328125
L 14.984375 39.5
Q 20.703125 43.890625 29.203125 43.890625
Q 39.359375 43.890625 45.390625 37.9375
Q 51.421875 31.984375 51.421875 22.40625
z
" id="LiberationSans-53"/>
      </defs>
      <g style="fill:#444950;" transform="translate(92.274209 679.780207)scale(0.15 -0.15)">
       <use transform="translate(0 0.8625)" xlink:href="#LiberationSans-49"/>
       <use transform="translate(55.615234 0.8625)" xlink:href="#LiberationSans-48"/>
       <use transform="translate(112.154961 37.842188)scale(0.7)" xlink:href="#LiberationSans-53"/>
      </g>
     </g>
    </g>
    <g id="xtick_2">
     <g id="line2d_3">
      <path clip-path="url(#p3ab2b39918)" d="M 320.617766 662.909895
L 320.617766 12.481351
" style="fill:none;stroke:#e6e2df;stroke-linecap:square;stroke-width:0.8;"/>
     </g>
     <g id="line2d_4"/>
     <g id="text_2">
      <!-- $\mathdefault{10^{6}}$ -->
      <defs>
       <path d="M 51.21875 22.515625
Q 51.21875 11.625 45.3125 5.3125
Q 39.40625 -0.984375 29 -0.984375
Q 17.390625 -0.984375 11.234375 7.65625
Q 5.078125 16.3125 5.078125 32.8125
Q 5.078125 50.6875 11.46875 60.25
Q 17.875 69.828125 29.6875 69.828125
Q 45.265625 69.828125 49.3125 55.8125
L 40.921875 54.296875
Q 38.328125 62.703125 29.59375 62.703125
Q 22.078125 62.703125 17.9375 55.6875
Q 13.8125 48.6875 13.8125 35.40625
Q 16.21875 39.84375 20.5625 42.15625
Q 24.90625 44.484375 30.515625 44.484375
Q 40.046875 44.484375 45.625 38.515625
Q 51.21875 32.5625 51.21875 22.515625
z
M 42.28125 22.125
Q 42.28125 29.59375 38.625 33.640625
Q 34.96875 37.703125 28.421875 37.703125
Q 22.265625 37.703125 18.484375 34.109375
Q 14.703125 30.515625 14.703125 24.21875
Q 14.703125 16.265625 18.625 11.1875
Q 22.5625 6.109375 28.71875 6.109375
Q 35.0625 6.109375 38.671875 10.375
Q 42.28125 14.65625 42.28125 22.125
z
" id="LiberationSans-54"/>
      </defs>
      <g style="fill:#444950;" transform="translate(309.067766 679.780207)scale(0.15 -0.15)">
       <use transform="translate(0 0.140625)" xlink:href="#LiberationSans-49"/>
       <use transform="translate(55.615234 0.140625)" xlink:href="#LiberationSans-48"/>
       <use transform="translate(112.154961 37.120312)scale(0.7)" xlink:href="#LiberationSans-54"/>
      </g>
     </g>
    </g>
    <g id="xtick_3">
     <g id="line2d_5">
      <path clip-path="url(#p3ab2b39918)" d="M 537.411324 662.909895
L 537.411324 12.481351
" style="fill:none;stroke:#e6e2df;stroke-linecap:square;stroke-width:0.8;"/>
     </g>
     <g id="line2d_6"/>
     <g id="text_3">
      <!-- $\mathdefault{10^{7}}$ -->
      <defs>
       <path d="M 50.59375 61.671875
Q 40.046875 45.5625 35.6875 36.421875
Q 31.34375 27.296875 29.171875 18.40625
Q 27 9.515625 27 0
L 17.828125 0
Q 17.828125 13.1875 23.40625 27.75
Q 29 42.328125 42.09375 61.328125
L 5.125 61.328125
L 5.125 68.796875
L 50.59375 68.796875
z
" id="LiberationSans-55"/>
      </defs>
      <g style="fill:#444950;" transform="translate(525.861324 679.780207)scale(0.15 -0.15)">
       <use transform="translate(0 0.8625)" xlink:href="#LiberationSans-49"/>
       <use transform="translate(55.615234 0.8625)" xlink:href="#LiberationSans-48"/>
       <use transform="translate(112.154961 37.842188)scale(0.7)" xlink:href="#LiberationSans-55"/>
      </g>
     </g>
    </g>
    <g id="xtick_4">
     <g id="line2d_7">
      <path clip-path="url(#p3ab2b39918)" d="M 754.204881 662.909895
L 754.204881 12.481351
" style="fill:none;stroke:#e6e2df;stroke-linecap:square;stroke-width:0.8;"/>
     </g>
     <g id="line2d_8"/>
     <g id="text_4">
      <!-- $\mathdefault{10^{8}}$ -->
      <defs>
       <path d="M 51.265625 19.1875
Q 51.265625 9.671875 45.203125 4.34375
Q 39.15625 -0.984375 27.828125 -0.984375
Q 16.796875 -0.984375 10.5625 4.234375
Q 4.34375 9.46875 4.34375 19.09375
Q 4.34375 25.828125 8.203125 30.421875
Q 12.0625 35.015625 18.0625 35.984375
L 18.0625 36.1875
Q 12.453125 37.5 9.203125 41.890625
Q 5.953125 46.296875 5.953125 52.203125
Q 5.953125 60.0625 11.828125 64.9375
Q 17.71875 69.828125 27.640625 69.828125
Q 37.796875 69.828125 43.671875 65.03125
Q 49.5625 60.25 49.5625 52.09375
Q 49.5625 46.1875 46.28125 41.796875
Q 43.015625 37.40625 37.359375 36.28125
L 37.359375 36.078125
Q 43.953125 35.015625 47.609375 30.5
Q 51.265625 25.984375 51.265625 19.1875
z
M 40.4375 51.609375
Q 40.4375 63.28125 27.640625 63.28125
Q 21.4375 63.28125 18.1875 60.34375
Q 14.9375 57.421875 14.9375 51.609375
Q 14.9375 45.703125 18.28125 42.59375
Q 21.625 39.5 27.734375 39.5
Q 33.9375 39.5 37.1875 42.359375
Q 40.4375 45.21875 40.4375 51.609375
z
M 42.140625 20.015625
Q 42.140625 26.421875 38.328125 29.65625
Q 34.515625 32.90625 27.640625 32.90625
Q 20.953125 32.90625 17.1875 29.40625
Q 13.421875 25.921875 13.421875 19.828125
Q 13.421875 5.609375 27.9375 5.609375
Q 35.109375 5.609375 38.625 9.046875
Q 42.140625 12.5 42.140625 20.015625
z
" id="LiberationSans-56"/>
      </defs>
      <g style="fill:#444950;" transform="translate(742.654881 679.780207)scale(0.15 -0.15)">
       <use transform="translate(0 0.140625)" xlink:href="#LiberationSans-49"/>
       <use transform="translate(55.615234 0.140625)" xlink:href="#LiberationSans-48"/>
       <use transform="translate(112.154961 37.120312)scale(0.7)" xlink:href="#LiberationSans-56"/>
      </g>
     </g>
    </g>
    <g id="xtick_5">
     <g id="line2d_9">
      <path clip-path="url(#p3ab2b39918)" d="M 970.998439 662.909895
L 970.998439 12.481351
" style="fill:none;stroke:#e6e2df;stroke-linecap:square;stroke-width:0.8;"/>
     </g>
     <g id="line2d_10"/>
     <g id="text_5">
      <!-- $\mathdefault{10^{9}}$ -->
      <defs>
       <path d="M 50.875 35.796875
Q 50.875 18.0625 44.40625 8.53125
Q 37.9375 -0.984375 25.984375 -0.984375
Q 17.921875 -0.984375 13.0625 2.40625
Q 8.203125 5.8125 6.109375 13.375
L 14.5 14.703125
Q 17.140625 6.109375 26.125 6.109375
Q 33.6875 6.109375 37.84375 13.140625
Q 42 20.171875 42.1875 33.203125
Q 40.234375 28.8125 35.5 26.140625
Q 30.765625 23.484375 25.09375 23.484375
Q 15.828125 23.484375 10.25 29.828125
Q 4.6875 36.1875 4.6875 46.6875
Q 4.6875 57.46875 10.734375 63.640625
Q 16.796875 69.828125 27.59375 69.828125
Q 39.0625 69.828125 44.96875 61.328125
Q 50.875 52.828125 50.875 35.796875
z
M 41.3125 44.28125
Q 41.3125 52.59375 37.5 57.640625
Q 33.6875 62.703125 27.296875 62.703125
Q 20.953125 62.703125 17.28125 58.375
Q 13.625 54.046875 13.625 46.6875
Q 13.625 39.15625 17.28125 34.78125
Q 20.953125 30.421875 27.203125 30.421875
Q 31 30.421875 34.265625 32.15625
Q 37.546875 33.890625 39.421875 37.0625
Q 41.3125 40.234375 41.3125 44.28125
z
" id="LiberationSans-57"/>
      </defs>
      <g style="fill:#444950;" transform="translate(959.448439 679.780207)scale(0.15 -0.15)">
       <use transform="translate(0 0.140625)" xlink:href="#LiberationSans-49"/>
       <use transform="translate(55.615234 0.140625)" xlink:href="#LiberationSans-48"/>
       <use transform="translate(112.154961 37.120312)scale(0.7)" xlink:href="#LiberationSans-57"/>
      </g>
     </g>
    </g>
    <g id="xtick_6">
     <g id="line2d_11"/>
    </g>
    <g id="xtick_7">
     <g id="line2d_12"/>
    </g>
    <g id="xtick_8">
     <g id="line2d_13"/>
    </g>
    <g id="xtick_9">
     <g id="line2d_14"/>
    </g>
    <g id="xtick_10">
     <g id="line2d_15"/>
    </g>
    <g id="xtick_11">
     <g id="line2d_16"/>
    </g>
    <g id="xtick_12">
     <g id="line2d_17"/>
    </g>
    <g id="xtick_13">
     <g id="line2d_18"/>
    </g>
    <g id="xtick_14">
     <g id="line2d_19"/>
    </g>
    <g id="xtick_15">
     <g id="line2d_20"/>
    </g>
    <g id="xtick_16">
     <g id="line2d_21"/>
    </g>
    <g id="xtick_17">
     <g id="line2d_22"/>
    </g>
    <g id="xtick_18">
     <g id="line2d_23"/>
    </g>
    <g id="xtick_19">
     <g id="line2d_24"/>
    </g>
    <g id="xtick_20">
     <g id="line2d_25"/>
    </g>
    <g id="xtick_21">
     <g id="line2d_26"/>
    </g>
    <g id="xtick_22">
     <g id="line2d_27"/>
    </g>
    <g id="xtick_23">
     <g id="line2d_28"/>
    </g>
    <g id="xtick_24">
     <g id="line2d_29"/>
    </g>
    <g id="xtick_25">
     <g id="line2d_30"/>
    </g>
    <g id="xtick_26">
     <g id="line2d_31"/>
    </g>
    <g id="xtick_27">
     <g id="line2d_32"/>
    </g>
    <g id="xtick_28">
     <g id="line2d_33"/>
    </g>
    <g id="xtick_29">
     <g id="line2d_34"/>
    </g>
    <g id="xtick_30">
     <g id="line2d_35"/>
    </g>
    <g id="xtick_31">
     <g id="line2d_36"/>
    </g>
    <g id="xtick_32">
     <g id="line2d_37"/>
    </g>
    <g id="xtick_33">
     <g id="line2d_38"/>
    </g>
    <g id="xtick_34">
     <g id="line2d_39"/>
    </g>
    <g id="xtick_35">
     <g id="line2d_40"/>
    </g>
    <g id="xtick_36">
     <g id="line2d_41"/>
    </g>
    <g id="xtick_37">
     <g id="line2d_42"/>
    </g>
    <g id="xtick_38">
     <g id="line2d_43"/>
    </g>
    <g id="xtick_39">
     <g id="line2d_44"/>
    </g>
    <g id="xtick_40">
     <g id="line2d_45"/>
    </g>
    <g id="xtick_41">
     <g id="line2d_46"/>
    </g>
    <g id="text_6">
     <!-- Total bytes transferred -->
     <defs>
      <path d="M 35.15625 61.1875
L 35.15625 0
L 25.875 0
L 25.875 61.1875
L 2.25 61.1875
L 2.25 68.796875
L 58.796875 68.796875
L 58.796875 61.1875
z
" id="LiberationSans-84"/>
      <path d="M 51.421875 26.46875
Q 51.421875 12.59375 45.3125 5.796875
Q 39.203125 -0.984375 27.59375 -0.984375
Q 16.015625 -0.984375 10.109375 6.078125
Q 4.203125 13.140625 4.203125 26.46875
Q 4.203125 53.8125 27.875 53.8125
Q 39.984375 53.8125 45.703125 47.140625
Q 51.421875 40.484375 51.421875 26.46875
z
M 42.1875 26.46875
Q 42.1875 37.40625 38.9375 42.359375
Q 35.6875 47.3125 28.03125 47.3125
Q 20.3125 47.3125 16.859375 42.25
Q 13.421875 37.203125 13.421875 26.46875
Q 13.421875 16.015625 16.8125 10.765625
Q 20.21875 5.515625 27.484375 5.515625
Q 35.40625 5.515625 38.796875 10.59375
Q 42.1875 15.671875 42.1875 26.46875
z
" id="LiberationSans-111"/>
      <path d="M 27.046875 0.390625
Q 22.703125 -0.78125 18.171875 -0.78125
Q 7.625 -0.78125 7.625 11.1875
L 7.625 46.4375
L 1.515625 46.4375
L 1.515625 52.828125
L 7.953125 52.828125
L 10.546875 64.65625
L 16.40625 64.65625
L 16.40625 52.828125
L 26.171875 52.828125
L 26.171875 46.4375
L 16.40625 46.4375
L 16.40625 13.09375
Q 16.40625 9.28125 17.640625 7.734375
Q 18.890625 6.203125 21.96875 6.203125
Q 23.734375 6.203125 27.046875 6.890625
z
" id="LiberationSans-116"/>
      <path d="M 20.21875 -0.984375
Q 12.25 -0.984375 8.25 3.21875
Q 4.25 7.421875 4.25 14.75
Q 4.25 22.953125 9.640625 27.34375
Q 15.046875 31.734375 27.046875 32.03125
L 38.921875 32.234375
L 38.921875 35.109375
Q 38.921875 41.546875 36.1875 44.328125
Q 33.453125 47.125 27.59375 47.125
Q 21.6875 47.125 19 45.109375
Q 16.3125 43.109375 15.765625 38.71875
L 6.59375 39.546875
Q 8.84375 53.8125 27.78125 53.8125
Q 37.75 53.8125 42.765625 49.234375
Q 47.796875 44.671875 47.796875 36.03125
L 47.796875 13.28125
Q 47.796875 9.375 48.828125 7.390625
Q 49.859375 5.421875 52.734375 5.421875
Q 54 5.421875 55.609375 5.765625
L 55.609375 0.296875
Q 52.296875 -0.484375 48.828125 -0.484375
Q 43.953125 -0.484375 41.71875 2.078125
Q 39.5 4.640625 39.203125 10.109375
L 38.921875 10.109375
Q 35.546875 4.046875 31.078125 1.53125
Q 26.609375 -0.984375 20.21875 -0.984375
z
M 22.21875 5.609375
Q 27.046875 5.609375 30.8125 7.8125
Q 34.578125 10.015625 36.75 13.84375
Q 38.921875 17.671875 38.921875 21.734375
L 38.921875 26.078125
L 29.296875 25.875
Q 23.09375 25.78125 19.890625 24.609375
Q 16.703125 23.4375 14.984375 21
Q 13.28125 18.5625 13.28125 14.59375
Q 13.28125 10.296875 15.59375 7.953125
Q 17.921875 5.609375 22.21875 5.609375
z
" id="LiberationSans-97"/>
      <path d="M 6.734375 0
L 6.734375 72.46875
L 15.53125 72.46875
L 15.53125 0
z
" id="LiberationSans-108"/>
      <path id="LiberationSans-32"/>
      <path d="M 51.421875 26.65625
Q 51.421875 -0.984375 31.984375 -0.984375
Q 25.984375 -0.984375 22 1.1875
Q 18.015625 3.375 15.53125 8.203125
L 15.4375 8.203125
Q 15.4375 6.6875 15.234375 3.578125
Q 15.046875 0.484375 14.9375 0
L 6.453125 0
Q 6.734375 2.640625 6.734375 10.890625
L 6.734375 72.46875
L 15.53125 72.46875
L 15.53125 51.8125
Q 15.53125 48.640625 15.328125 44.34375
L 15.53125 44.34375
Q 17.96875 49.421875 22 51.609375
Q 26.03125 53.8125 31.984375 53.8125
Q 42 53.8125 46.703125 47.0625
Q 51.421875 40.328125 51.421875 26.65625
z
M 42.1875 26.375
Q 42.1875 37.453125 39.25 42.234375
Q 36.328125 47.015625 29.734375 47.015625
Q 22.3125 47.015625 18.921875 41.9375
Q 15.53125 36.859375 15.53125 25.828125
Q 15.53125 15.4375 18.84375 10.46875
Q 22.171875 5.515625 29.640625 5.515625
Q 36.28125 5.515625 39.234375 10.421875
Q 42.1875 15.328125 42.1875 26.375
z
" id="LiberationSans-98"/>
      <path d="M 9.328125 -20.75
Q 5.71875 -20.75 3.265625 -20.21875
L 3.265625 -13.625
Q 5.125 -13.921875 7.375 -13.921875
Q 15.578125 -13.921875 20.359375 -1.859375
L 21.1875 0.25
L 0.25 52.828125
L 9.625 52.828125
L 20.75 23.640625
Q 21 22.953125 21.34375 22
Q 21.6875 21.046875 23.53125 15.625
Q 25.390625 10.203125 25.53125 9.578125
L 28.953125 19.1875
L 40.53125 52.828125
L 49.8125 52.828125
L 29.5 0
Q 26.21875 -8.453125 23.390625 -12.578125
Q 20.5625 -16.703125 17.109375 -18.71875
Q 13.671875 -20.75 9.328125 -20.75
z
" id="LiberationSans-121"/>
      <path d="M 13.484375 24.5625
Q 13.484375 15.484375 17.234375 10.546875
Q 21 5.609375 28.21875 5.609375
Q 33.9375 5.609375 37.375 7.90625
Q 40.828125 10.203125 42.046875 13.71875
L 49.75 11.53125
Q 45.015625 -0.984375 28.21875 -0.984375
Q 16.5 -0.984375 10.375 6
Q 4.25 12.984375 4.25 26.765625
Q 4.25 39.84375 10.375 46.828125
Q 16.5 53.8125 27.875 53.8125
Q 51.171875 53.8125 51.171875 25.734375
L 51.171875 24.5625
z
M 42.09375 31.296875
Q 41.359375 39.65625 37.84375 43.484375
Q 34.328125 47.3125 27.734375 47.3125
Q 21.34375 47.3125 17.609375 43.03125
Q 13.875 38.765625 13.578125 31.296875
z
" id="LiberationSans-101"/>
      <path d="M 46.390625 14.59375
Q 46.390625 7.125 40.75 3.0625
Q 35.109375 -0.984375 24.953125 -0.984375
Q 15.09375 -0.984375 9.734375 2.265625
Q 4.390625 5.515625 2.78125 12.40625
L 10.546875 13.921875
Q 11.671875 9.671875 15.1875 7.6875
Q 18.703125 5.71875 24.953125 5.71875
Q 31.640625 5.71875 34.734375 7.765625
Q 37.84375 9.8125 37.84375 13.921875
Q 37.84375 17.046875 35.6875 19
Q 33.546875 20.953125 28.765625 22.21875
L 22.46875 23.875
Q 14.890625 25.828125 11.6875 27.703125
Q 8.5 29.59375 6.6875 32.28125
Q 4.890625 34.96875 4.890625 38.875
Q 4.890625 46.09375 10.03125 49.875
Q 15.1875 53.65625 25.046875 53.65625
Q 33.796875 53.65625 38.9375 50.578125
Q 44.09375 47.515625 45.453125 40.71875
L 37.546875 39.75
Q 36.8125 43.265625 33.609375 45.140625
Q 30.421875 47.015625 25.046875 47.015625
Q 19.09375 47.015625 16.25 45.203125
Q 13.421875 43.40625 13.421875 39.75
Q 13.421875 37.5 14.59375 36.03125
Q 15.765625 34.578125 18.0625 33.546875
Q 20.359375 32.515625 27.734375 30.71875
Q 34.71875 28.953125 37.796875 27.46875
Q 40.875 25.984375 42.65625 24.171875
Q 44.4375 22.359375 45.40625 19.984375
Q 46.390625 17.625 46.390625 14.59375
z
" id="LiberationSans-115"/>
      <path d="M 6.9375 0
L 6.9375 40.53125
Q 6.9375 46.09375 6.640625 52.828125
L 14.9375 52.828125
Q 15.328125 43.84375 15.328125 42.046875
L 15.53125 42.046875
Q 17.625 48.828125 20.359375 51.3125
Q 23.09375 53.8125 28.078125 53.8125
Q 29.828125 53.8125 31.640625 53.328125
L 31.640625 45.265625
Q 29.890625 45.75 26.953125 45.75
Q 21.484375 45.75 18.59375 41.03125
Q 15.71875 36.328125 15.71875 27.546875
L 15.71875 0
z
" id="LiberationSans-114"/>
      <path d="M 40.28125 0
L 40.28125 33.5
Q 40.28125 38.71875 39.25 41.59375
Q 38.234375 44.484375 35.984375 45.75
Q 33.734375 47.015625 29.390625 47.015625
Q 23.046875 47.015625 19.375 42.671875
Q 15.71875 38.328125 15.71875 30.609375
L 15.71875 0
L 6.9375 0
L 6.9375 41.546875
Q 6.9375 50.78125 6.640625 52.828125
L 14.9375 52.828125
Q 14.984375 52.59375 15.03125 51.515625
Q 15.09375 50.4375 15.15625 49.046875
Q 15.234375 47.65625 15.328125 43.796875
L 15.484375 43.796875
Q 18.5 49.265625 22.484375 51.53125
Q 26.46875 53.8125 32.375 53.8125
Q 41.0625 53.8125 45.09375 49.484375
Q 49.125 45.171875 49.125 35.203125
L 49.125 0
z
" id="LiberationSans-110"/>
      <path d="M 17.625 46.4375
L 17.625 0
L 8.84375 0
L 8.84375 46.4375
L 1.421875 46.4375
L 1.421875 52.828125
L 8.84375 52.828125
L 8.84375 58.796875
Q 8.84375 66.015625 12.015625 69.1875
Q 15.1875 72.359375 21.734375 72.359375
Q 25.390625 72.359375 27.9375 71.78125
L 27.9375 65.09375
Q 25.734375 65.484375 24.03125 65.484375
Q 20.65625 65.484375 19.140625 63.765625
Q 17.625 62.0625 17.625 57.5625
L 17.625 52.828125
L 27.9375 52.828125
L 27.9375 46.4375
z
" id="LiberationSans-102"/>
      <path d="M 40.09375 8.5
Q 37.640625 3.421875 33.609375 1.21875
Q 29.59375 -0.984375 23.640625 -0.984375
Q 13.625 -0.984375 8.90625 5.75
Q 4.203125 12.5 4.203125 26.171875
Q 4.203125 53.8125 23.640625 53.8125
Q 29.640625 53.8125 33.640625 51.609375
Q 37.640625 49.421875 40.09375 44.625
L 40.1875 44.625
L 40.09375 50.53125
L 40.09375 72.46875
L 48.875 72.46875
L 48.875 10.890625
Q 48.875 2.640625 49.171875 0
L 40.765625 0
Q 40.625 0.78125 40.453125 3.609375
Q 40.28125 6.453125 40.28125 8.5
z
M 13.421875 26.46875
Q 13.421875 15.375 16.34375 10.59375
Q 19.28125 5.8125 25.875 5.8125
Q 33.34375 5.8125 36.71875 10.984375
Q 40.09375 16.15625 40.09375 27.046875
Q 40.09375 37.546875 36.71875 42.421875
Q 33.34375 47.3125 25.984375 47.3125
Q 19.34375 47.3125 16.375 42.40625
Q 13.421875 37.5 13.421875 26.46875
z
" id="LiberationSans-100"/>
     </defs>
     <g style="fill:#444950;" transform="translate(487.872656 697.76302)scale(0.15 -0.15)">
      <use xlink:href="#LiberationSans-84"/>
      <use x="60.912109" xlink:href="#LiberationSans-111"/>
      <use x="116.527344" xlink:href="#LiberationSans-116"/>
      <use x="144.310547" xlink:href="#LiberationSans-97"/>
      <use x="199.925781" xlink:href="#LiberationSans-108"/>
      <use x="222.142578" xlink:href="#LiberationSans-32"/>
      <use x="249.925781" xlink:href="#LiberationSans-98"/>
      <use x="305.541016" xlink:href="#LiberationSans-121"/>
      <use x="355.541016" xlink:href="#LiberationSans-116"/>
      <use x="383.324219" xlink:href="#LiberationSans-101"/>
      <use x="438.939453" xlink:href="#LiberationSans-115"/>
      <use x="488.939453" xlink:href="#LiberationSans-32"/>
      <use x="516.722656" xlink:href="#LiberationSans-116"/>
      <use x="544.505859" xlink:href="#LiberationSans-114"/>
      <use x="577.806641" xlink:href="#LiberationSans-97"/>
      <use x="633.421875" xlink:href="#LiberationSans-110"/>
      <use x="689.037109" xlink:href="#LiberationSans-115"/>
      <use x="739.037109" xlink:href="#LiberationSans-102"/>
      <use x="766.820312" xlink:href="#LiberationSans-101"/>
      <use x="822.435547" xlink:href="#LiberationSans-114"/>
      <use x="855.736328" xlink:href="#LiberationSans-114"/>
      <use x="889.037109" xlink:href="#LiberationSans-101"/>
      <use x="944.652344" xlink:href="#LiberationSans-100"/>
     </g>
    </g>
   </g>
   <g id="matplotlib.axis_2">
    <g id="ytick_1">
     <g id="line2d_47">
      <path clip-path="url(#p3ab2b39918)" d="M 60.374219 653.646261
L 1065.399219 653.646261
" style="fill:none;stroke:#e6e2df;stroke-linecap:square;stroke-width:0.8;"/>
     </g>
     <g id="line2d_48"/>
     <g id="text_7">
      <!-- 0.25 -->
      <defs>
       <path d="M 9.125 0
L 9.125 10.6875
L 18.65625 10.6875
L 18.65625 0
z
" id="LiberationSans-46"/>
       <path d="M 5.03125 0
L 5.03125 6.203125
Q 7.515625 11.921875 11.109375 16.28125
Q 14.703125 20.65625 18.65625 24.1875
Q 22.609375 27.734375 26.484375 30.765625
Q 30.375 33.796875 33.5 36.8125
Q 36.625 39.84375 38.546875 43.15625
Q 40.484375 46.484375 40.484375 50.6875
Q 40.484375 56.34375 37.15625 59.46875
Q 33.84375 62.59375 27.9375 62.59375
Q 22.3125 62.59375 18.671875 59.546875
Q 15.046875 56.5 14.40625 50.984375
L 5.421875 51.8125
Q 6.390625 60.0625 12.421875 64.9375
Q 18.453125 69.828125 27.9375 69.828125
Q 38.328125 69.828125 43.921875 64.921875
Q 49.515625 60.015625 49.515625 50.984375
Q 49.515625 46.96875 47.671875 43.015625
Q 45.84375 39.0625 42.234375 35.109375
Q 38.625 31.15625 28.421875 22.859375
Q 22.796875 18.265625 19.46875 14.578125
Q 16.15625 10.890625 14.703125 7.46875
L 50.59375 7.46875
L 50.59375 0
z
" id="LiberationSans-50"/>
      </defs>
      <g style="fill:#444950;" transform="translate(25.182813 659.081417)scale(0.15 -0.15)">
       <use xlink:href="#LiberationSans-48"/>
       <use x="55.615234" xlink:href="#LiberationSans-46"/>
       <use x="83.398438" xlink:href="#LiberationSans-50"/>
       <use x="139.013672" xlink:href="#LiberationSans-53"/>
      </g>
     </g>
    </g>
    <g id="ytick_2">
     <g id="line2d_49">
      <path clip-path="url(#p3ab2b39918)" d="M 60.374219 589.325071
L 1065.399219 589.325071
" style="fill:none;stroke:#e6e2df;stroke-linecap:square;stroke-width:0.8;"/>
     </g>
     <g id="line2d_50"/>
     <g id="text_8">
      <!-- 0.5 -->
      <g style="fill:#444950;" transform="translate(33.524219 594.760227)scale(0.15 -0.15)">
       <use xlink:href="#LiberationSans-48"/>
       <use x="55.615234" xlink:href="#LiberationSans-46"/>
       <use x="83.398438" xlink:href="#LiberationSans-53"/>
      </g>
     </g>
    </g>
    <g id="ytick_3">
     <g id="line2d_51">
      <path clip-path="url(#p3ab2b39918)" d="M 60.374219 525.003881
L 1065.399219 525.003881
" style="fill:none;stroke:#e6e2df;stroke-linecap:square;stroke-width:0.8;"/>
     </g>
     <g id="line2d_52"/>
     <g id="text_9">
      <!-- 1 -->
      <g style="fill:#444950;" transform="translate(46.032813 530.439037)scale(0.15 -0.15)">
       <use xlink:href="#LiberationSans-49"/>
      </g>
     </g>
    </g>
    <g id="ytick_4">
     <g id="line2d_53">
      <path clip-path="url(#p3ab2b39918)" d="M 60.374219 439.975893
L 1065.399219 439.975893
" style="fill:none;stroke:#e6e2df;stroke-linecap:square;stroke-width:0.8;"/>
     </g>
     <g id="line2d_54"/>
     <g id="text_10">
      <!-- 2.5 -->
      <g style="fill:#444950;" transform="translate(33.524219 445.411049)scale(0.15 -0.15)">
       <use xlink:href="#LiberationSans-50"/>
       <use x="55.615234" xlink:href="#LiberationSans-46"/>
       <use x="83.398438" xlink:href="#LiberationSans-53"/>
      </g>
     </g>
    </g>
    <g id="ytick_5">
     <g id="line2d_55">
      <path clip-path="url(#p3ab2b39918)" d="M 60.374219 375.654703
L 1065.399219 375.654703
" style="fill:none;stroke:#e6e2df;stroke-linecap:square;stroke-width:0.8;"/>
     </g>
     <g id="line2d_56"/>
     <g id="text_11">
      <!-- 5 -->
      <g style="fill:#444950;" transform="translate(46.032813 381.089859)scale(0.15 -0.15)">
       <use xlink:href="#LiberationSans-53"/>
      </g>
     </g>
    </g>
    <g id="ytick_6">
     <g id="line2d_57">
      <path clip-path="url(#p3ab2b39918)" d="M 60.374219 311.333513
L 1065.399219 311.333513
" style="fill:none;stroke:#e6e2df;stroke-linecap:square;stroke-width:0.8;"/>
     </g>
     <g id="line2d_58"/>
     <g id="text_12">
      <!-- 10 -->
      <g style="fill:#444950;" transform="translate(37.691406 316.768669)scale(0.15 -0.15)">
       <use xlink:href="#LiberationSans-49"/>
       <use x="55.615234" xlink:href="#LiberationSans-48"/>
      </g>
     </g>
    </g>
    <g id="ytick_7">
     <g id="line2d_59">
      <path clip-path="url(#p3ab2b39918)" d="M 60.374219 226.305525
L 1065.399219 226.305525
" style="fill:none;stroke:#e6e2df;stroke-linecap:square;stroke-width:0.8;"/>
     </g>
     <g id="line2d_60"/>
     <g id="text_13">
      <!-- 25 -->
      <g style="fill:#444950;" transform="translate(37.691406 231.740681)scale(0.15 -0.15)">
       <use xlink:href="#LiberationSans-50"/>
       <use x="55.615234" xlink:href="#LiberationSans-53"/>
      </g>
     </g>
    </g>
    <g id="ytick_8">
     <g id="line2d_61">
      <path clip-path="url(#p3ab2b39918)" d="M 60.374219 161.984334
L 1065.399219 161.984334
" style="fill:none;stroke:#e6e2df;stroke-linecap:square;stroke-width:0.8;"/>
     </g>
     <g id="line2d_62"/>
     <g id="text_14">
      <!-- 50 -->
      <g style="fill:#444950;" transform="translate(37.691406 167.419491)scale(0.15 -0.15)">
       <use xlink:href="#LiberationSans-53"/>
       <use x="55.615234" xlink:href="#LiberationSans-48"/>
      </g>
     </g>
    </g>
    <g id="ytick_9">
     <g id="line2d_63">
      <path clip-path="url(#p3ab2b39918)" d="M 60.374219 97.663144
L 1065.399219 97.663144
" style="fill:none;stroke:#e6e2df;stroke-linecap:square;stroke-width:0.8;"/>
     </g>
     <g id="line2d_64"/>
     <g id="text_15">
      <!-- 100 -->
      <g style="fill:#444950;" transform="translate(29.35 103.098301)scale(0.15 -0.15)">
       <use xlink:href="#LiberationSans-49"/>
       <use x="55.615234" xlink:href="#LiberationSans-48"/>
       <use x="111.230469" xlink:href="#LiberationSans-48"/>
      </g>
     </g>
    </g>
    <g id="ytick_10">
     <g id="line2d_65">
      <path clip-path="url(#p3ab2b39918)" d="M 60.374219 12.635156
L 1065.399219 12.635156
" style="fill:none;stroke:#e6e2df;stroke-linecap:square;stroke-width:0.8;"/>
     </g>
     <g id="line2d_66"/>
     <g id="text_16">
      <!-- 250 -->
      <g style="fill:#444950;" transform="translate(29.35 18.070312)scale(0.15 -0.15)">
       <use xlink:href="#LiberationSans-50"/>
       <use x="55.615234" xlink:href="#LiberationSans-53"/>
       <use x="111.230469" xlink:href="#LiberationSans-48"/>
      </g>
     </g>
    </g>
    <g id="ytick_11">
     <g id="line2d_67"/>
    </g>
    <g id="ytick_12">
     <g id="line2d_68"/>
    </g>
    <g id="ytick_13">
     <g id="line2d_69"/>
    </g>
    <g id="ytick_14">
     <g id="line2d_70"/>
    </g>
    <g id="ytick_15">
     <g id="line2d_71"/>
    </g>
    <g id="ytick_16">
     <g id="line2d_72"/>
    </g>
    <g id="ytick_17">
     <g id="line2d_73"/>
    </g>
    <g id="ytick_18">
     <g id="line2d_74"/>
    </g>
    <g id="ytick_19">
     <g id="line2d_75"/>
    </g>
    <g id="ytick_20">
     <g id="line2d_76"/>
    </g>
    <g id="ytick_21">
     <g id="line2d_77"/>
    </g>
    <g id="ytick_22">
     <g id="line2d_78"/>
    </g>
    <g id="ytick_23">
     <g id="line2d_79"/>
    </g>
    <g id="ytick_24">
     <g id="line2d_80"/>
    </g>
    <g id="ytick_25">
     <g id="line2d_81"/>
    </g>
    <g id="ytick_26">
     <g id="line2d_82"/>
    </g>
    <g id="ytick_27">
     <g id="line2d_83"/>
    </g>
    <g id="ytick_28">
     <g id="line2d_84"/>
    </g>
    <g id="ytick_29">
     <g id="line2d_85"/>
    </g>
    <g id="ytick_30">
     <g id="line2d_86"/>
    </g>
    <g id="ytick_31">
     <g id="line2d_87"/>
    </g>
    <g id="text_17">
     <!-- Total time (in ms) -->
     <defs>
      <path d="M 6.6875 64.0625
L 6.6875 72.46875
L 15.484375 72.46875
L 15.484375 64.0625
z
M 6.6875 0
L 6.6875 52.828125
L 15.484375 52.828125
L 15.484375 0
z
" id="LiberationSans-105"/>
      <path d="M 37.5 0
L 37.5 33.5
Q 37.5 41.15625 35.390625 44.078125
Q 33.296875 47.015625 27.828125 47.015625
Q 22.21875 47.015625 18.9375 42.71875
Q 15.671875 38.421875 15.671875 30.609375
L 15.671875 0
L 6.9375 0
L 6.9375 41.546875
Q 6.9375 50.78125 6.640625 52.828125
L 14.9375 52.828125
Q 14.984375 52.59375 15.03125 51.515625
Q 15.09375 50.4375 15.15625 49.046875
Q 15.234375 47.65625 15.328125 43.796875
L 15.484375 43.796875
Q 18.3125 49.421875 21.96875 51.609375
Q 25.640625 53.8125 30.90625 53.8125
Q 36.921875 53.8125 40.40625 51.421875
Q 43.890625 49.03125 45.265625 43.796875
L 45.40625 43.796875
Q 48.140625 49.125 52.015625 51.46875
Q 55.90625 53.8125 61.421875 53.8125
Q 69.4375 53.8125 73.0625 49.46875
Q 76.703125 45.125 76.703125 35.203125
L 76.703125 0
L 68.015625 0
L 68.015625 33.5
Q 68.015625 41.15625 65.90625 44.078125
Q 63.8125 47.015625 58.34375 47.015625
Q 52.59375 47.015625 49.390625 42.75
Q 46.1875 38.484375 46.1875 30.609375
L 46.1875 0
z
" id="LiberationSans-109"/>
      <path d="M 6.203125 25.984375
Q 6.203125 40.09375 10.625 51.3125
Q 15.046875 62.546875 24.21875 72.46875
L 32.71875 72.46875
Q 23.578125 62.3125 19.3125 50.875
Q 15.046875 39.453125 15.046875 25.875
Q 15.046875 12.359375 19.265625 0.96875
Q 23.484375 -10.40625 32.71875 -20.703125
L 24.21875 -20.703125
Q 14.984375 -10.75 10.59375 0.5
Q 6.203125 11.765625 6.203125 25.78125
z
" id="LiberationSans-40"/>
      <path d="M 27.09375 25.78125
Q 27.09375 11.671875 22.671875 0.4375
Q 18.265625 -10.796875 9.078125 -20.703125
L 0.59375 -20.703125
Q 9.765625 -10.453125 14.015625 0.890625
Q 18.265625 12.25 18.265625 25.875
Q 18.265625 39.5 13.984375 50.875
Q 9.71875 62.25 0.59375 72.46875
L 9.078125 72.46875
Q 18.3125 62.5 22.703125 51.234375
Q 27.09375 39.984375 27.09375 25.984375
z
" id="LiberationSans-41"/>
     </defs>
     <g style="fill:#444950;" transform="translate(18.070312 395.602654)rotate(-90)scale(0.15 -0.15)">
      <use xlink:href="#LiberationSans-84"/>
      <use x="60.912109" xlink:href="#LiberationSans-111"/>
      <use x="116.527344" xlink:href="#LiberationSans-116"/>
      <use x="144.310547" xlink:href="#LiberationSans-97"/>
      <use x="199.925781" xlink:href="#LiberationSans-108"/>
      <use x="222.142578" xlink:href="#LiberationSans-32"/>
      <use x="249.925781" xlink:href="#LiberationSans-116"/>
      <use x="277.708984" xlink:href="#LiberationSans-105"/>
      <use x="299.925781" xlink:href="#LiberationSans-109"/>
      <use x="383.226562" xlink:href="#LiberationSans-101"/>
      <use x="438.841797" xlink:href="#LiberationSans-32"/>
      <use x="466.625" xlink:href="#LiberationSans-40"/>
      <use x="499.925781" xlink:href="#LiberationSans-105"/>
      <use x="522.142578" xlink:href="#LiberationSans-110"/>
      <use x="577.757812" xlink:href="#LiberationSans-32"/>
      <use x="605.541016" xlink:href="#LiberationSans-109"/>
      <use x="688.841797" xlink:href="#LiberationSans-115"/>
      <use x="738.841797" xlink:href="#LiberationSans-41"/>
     </g>
    </g>
   </g>
   <g id="line2d_88">
    <path clip-path="url(#p3ab2b39918)" d="M 106.057173 633.344961
L 236.579901 629.94998
L 367.102628 604.124871
L 497.625355 573.953374
L 628.148082 417.375673
L 758.67081 294.102477
L 889.193537 173.848118
L 1019.716264 42.046285
" style="fill:none;stroke:#4285f4;stroke-linecap:square;stroke-width:2;"/>
    <defs>
     <path d="M 0 3
C 0.795609 3 1.55874 2.683901 2.12132 2.12132
C 2.683901 1.55874 3 0.795609 3 0
C 3 -0.795609 2.683901 -1.55874 2.12132 -2.12132
C 1.55874 -2.683901 0.795609 -3 0 -3
C -0.795609 -3 -1.55874 -2.683901 -2.12132 -2.12132
C -2.683901 -1.55874 -3 -0.795609 -3 0
C -3 0.795609 -2.683901 1.55874 -2.12132 2.12132
C -1.55874 2.683901 -0.795609 3 0 3
z
" id="meb755690d9" style="stroke:#4285f4;"/>
    </defs>
    <g clip-path="url(#p3ab2b39918)">
     <use style="fill:#4285f4;stroke:#4285f4;" x="106.057173" xlink:href="#meb755690d9" y="633.344961"/>
     <use style="fill:#4285f4;stroke:#4285f4;" x="236.579901" xlink:href="#meb755690d9" y="629.94998"/>
     <use style="fill:#4285f4;stroke:#4285f4;" x="367.102628" xlink:href="#meb755690d9" y="604.124871"/>
     <use style="fill:#4285f4;stroke:#4285f4;" x="497.625355" xlink:href="#meb755690d9" y="573.953374"/>
     <use style="fill:#4285f4;stroke:#4285f4;" x="628.148082" xlink:href="#meb755690d9" y="417.375673"/>
     <use style="fill:#4285f4;stroke:#4285f4;" x="758.67081" xlink:href="#meb755690d9" y="294.102477"/>
     <use style="fill:#4285f4;stroke:#4285f4;" x="889.193537" xlink:href="#meb755690d9" y="173.848118"/>
     <use style="fill:#4285f4;stroke:#4285f4;" x="1019.716264" xlink:href="#meb755690d9" y="42.046285"/>
    </g>
   </g>
   <g id="line2d_89">
    <path clip-path="url(#p3ab2b39918)" d="M 106.057173 476.79122
L 236.579901 517.661053
L 367.102628 509.506042
L 497.625355 508.473136
L 628.148082 431.610822
L 758.67081 327.074698
L 889.193537 194.936131
L 1019.716264 68.043597
" style="fill:none;stroke:#ea4335;stroke-linecap:square;stroke-width:2;"/>
    <defs>
     <path d="M 0 3
C 0.795609 3 1.55874 2.683901 2.12132 2.12132
C 2.683901 1.55874 3 0.795609 3 0
C 3 -0.795609 2.683901 -1.55874 2.12132 -2.12132
C 1.55874 -2.683901 0.795609 -3 0 -3
C -0.795609 -3 -1.55874 -2.683901 -2.12132 -2.12132
C -2.683901 -1.55874 -3 -0.795609 -3 0
C -3 0.795609 -2.683901 1.55874 -2.12132 2.12132
C -1.55874 2.683901 -0.795609 3 0 3
z
" id="m73d40ca18e" style="stroke:#ea4335;"/>
    </defs>
    <g clip-path="url(#p3ab2b39918)">
     <use style="fill:#ea4335;stroke:#ea4335;" x="106.057173" xlink:href="#m73d40ca18e" y="476.79122"/>
     <use style="fill:#ea4335;stroke:#ea4335;" x="236.579901" xlink:href="#m73d40ca18e" y="517.661053"/>
     <use style="fill:#ea4335;stroke:#ea4335;" x="367.102628" xlink:href="#m73d40ca18e" y="509.506042"/>
     <use style="fill:#ea4335;stroke:#ea4335;" x="497.625355" xlink:href="#m73d40ca18e" y="508.473136"/>
     <use style="fill:#ea4335;stroke:#ea4335;" x="628.148082" xlink:href="#m73d40ca18e" y="431.610822"/>
     <use style="fill:#ea4335;stroke:#ea4335;" x="758.67081" xlink:href="#m73d40ca18e" y="327.074698"/>
     <use style="fill:#ea4335;stroke:#ea4335;" x="889.193537" xlink:href="#m73d40ca18e" y="194.936131"/>
     <use style="fill:#ea4335;stroke:#ea4335;" x="1019.716264" xlink:href="#m73d40ca18e" y="68.043597"/>
    </g>
   </g>
   <g id="patch_3">
    <path d="M 60.374219 662.909895
L 60.374219 12.481351
" style="fill:none;"/>
   </g>
   <g id="patch_4">
    <path d="M 1065.399219 662.909895
L 1065.399219 12.481351
" style="fill:none;"/>
   </g>
   <g id="patch_5">
    <path d="M 60.374219 662.909895
L 1065.399219 662.909895
" style="fill:none;"/>
   </g>
   <g id="patch_6">
    <path d="M 60.374219 12.481351
L 1065.399219 12.481351
" style="fill:none;"/>
   </g>
   <g id="legend_1">
    <g id="patch_7">
     <path d="M 809.447319 654.269895
L 1053.303219 654.269895
Q 1056.759219 654.269895 1056.759219 650.813895
L 1056.759219 627.793695
Q 1056.759219 624.337695 1053.303219 624.337695
L 809.447319 624.337695
Q 805.991319 624.337695 805.991319 627.793695
L 805.991319 650.813895
Q 805.991319 654.269895 809.447319 654.269895
z
" style="fill:#ffffff;opacity:0.8;stroke:#cccccc;stroke-linejoin:miter;stroke-width:0.5;"/>
    </g>
    <g id="line2d_90">
     <path d="M 812.903319 637.724295
L 847.463319 637.724295
" style="fill:none;stroke:#4285f4;stroke-linecap:square;stroke-width:2;"/>
    </g>
    <g id="line2d_91">
     <g>
      <use style="fill:#4285f4;stroke:#4285f4;" x="830.183319" xlink:href="#meb755690d9" y="637.724295"/>
     </g>
    </g>
    <g id="text_18">
     <!-- NCCL -->
     <defs>
      <path d="M 52.828125 0
L 16.015625 58.59375
L 16.265625 53.859375
L 16.5 45.703125
L 16.5 0
L 8.203125 0
L 8.203125 68.796875
L 19.046875 68.796875
L 56.25 9.8125
Q 55.671875 19.390625 55.671875 23.6875
L 55.671875 68.796875
L 64.0625 68.796875
L 64.0625 0
z
" id="LiberationSans-78"/>
      <path d="M 38.671875 62.203125
Q 27.25 62.203125 20.890625 54.859375
Q 14.546875 47.515625 14.546875 34.71875
Q 14.546875 22.078125 21.15625 14.375
Q 27.78125 6.6875 39.0625 6.6875
Q 53.515625 6.6875 60.796875 21
L 68.40625 17.1875
Q 64.15625 8.296875 56.46875 3.65625
Q 48.78125 -0.984375 38.625 -0.984375
Q 28.21875 -0.984375 20.625 3.34375
Q 13.03125 7.671875 9.046875 15.703125
Q 5.078125 23.734375 5.078125 34.71875
Q 5.078125 51.171875 13.96875 60.5
Q 22.859375 69.828125 38.578125 69.828125
Q 49.5625 69.828125 56.9375 65.53125
Q 64.3125 61.234375 67.78125 52.78125
L 58.9375 49.859375
Q 56.546875 55.859375 51.25 59.03125
Q 45.953125 62.203125 38.671875 62.203125
z
" id="LiberationSans-67"/>
      <path d="M 8.203125 0
L 8.203125 68.796875
L 17.53125 68.796875
L 17.53125 7.625
L 52.296875 7.625
L 52.296875 0
z
" id="LiberationSans-76"/>
     </defs>
     <g style="fill:#444950;" transform="translate(861.287319 643.772295)scale(0.1728 -0.1728)">
      <use xlink:href="#LiberationSans-78"/>
      <use x="72.216797" xlink:href="#LiberationSans-67"/>
      <use x="144.433594" xlink:href="#LiberationSans-67"/>
      <use x="216.650391" xlink:href="#LiberationSans-76"/>
     </g>
    </g>
    <g id="line2d_92">
     <path d="M 942.894819 637.724295
L 977.454819 637.724295
" style="fill:none;stroke:#ea4335;stroke-linecap:square;stroke-width:2;"/>
    </g>
    <g id="line2d_93">
     <g>
      <use style="fill:#ea4335;stroke:#ea4335;" x="960.174819" xlink:href="#m73d40ca18e" y="637.724295"/>
     </g>
    </g>
    <g id="text_19">
     <!-- Fairring -->
     <defs>
      <path d="M 17.53125 61.1875
L 17.53125 35.59375
L 55.90625 35.59375
L 55.90625 27.875
L 17.53125 27.875
L 17.53125 0
L 8.203125 0
L 8.203125 68.796875
L 57.078125 68.796875
L 57.078125 61.1875
z
" id="LiberationSans-70"/>
      <path d="M 26.765625 -20.75
Q 18.109375 -20.75 12.984375 -17.359375
Q 7.859375 -13.96875 6.390625 -7.71875
L 15.234375 -6.453125
Q 16.109375 -10.109375 19.109375 -12.078125
Q 22.125 -14.0625 27 -14.0625
Q 40.140625 -14.0625 40.140625 1.3125
L 40.140625 9.8125
L 40.046875 9.8125
Q 37.546875 4.734375 33.203125 2.171875
Q 28.859375 -0.390625 23.046875 -0.390625
Q 13.328125 -0.390625 8.765625 6.046875
Q 4.203125 12.5 4.203125 26.3125
Q 4.203125 40.328125 9.109375 46.984375
Q 14.015625 53.65625 24.03125 53.65625
Q 29.640625 53.65625 33.765625 51.09375
Q 37.890625 48.53125 40.140625 43.796875
L 40.234375 43.796875
Q 40.234375 45.265625 40.421875 48.875
Q 40.625 52.484375 40.828125 52.828125
L 49.171875 52.828125
Q 48.875 50.203125 48.875 41.890625
L 48.875 1.515625
Q 48.875 -20.75 26.765625 -20.75
z
M 40.140625 26.421875
Q 40.140625 32.859375 38.375 37.515625
Q 36.625 42.1875 33.421875 44.65625
Q 30.21875 47.125 26.171875 47.125
Q 19.4375 47.125 16.359375 42.234375
Q 13.28125 37.359375 13.28125 26.421875
Q 13.28125 15.578125 16.15625 10.84375
Q 19.046875 6.109375 26.03125 6.109375
Q 30.171875 6.109375 33.390625 8.546875
Q 36.625 10.984375 38.375 15.546875
Q 40.140625 20.125 40.140625 26.421875
z
" id="LiberationSans-103"/>
     </defs>
     <g style="fill:#444950;" transform="translate(991.278819 643.772295)scale(0.1728 -0.1728)">
      <use xlink:href="#LiberationSans-70"/>
      <use x="61.083984" xlink:href="#LiberationSans-97"/>
      <use x="116.699219" xlink:href="#LiberationSans-105"/>
      <use x="138.916016" xlink:href="#LiberationSans-114"/>
      <use x="172.216797" xlink:href="#LiberationSans-114"/>
      <use x="205.517578" xlink:href="#LiberationSans-105"/>
      <use x="227.734375" xlink:href="#LiberationSans-110"/>
      <use x="283.349609" xlink:href="#LiberationSans-103"/>
     </g>
    </g>
   </g>
  </g>
 </g>
 <defs>
  <clipPath id="p3ab2b39918">
   <rect height="650.428543" width="1005.025" x="60.374219" y="12.481351"/>
  </clipPath>
 </defs>
</svg>
