<?xml version="1.0" encoding="utf-8" standalone="no"?>
<!DOCTYPE svg PUBLIC "-//W3C//DTD SVG 1.1//EN"
  "http://www.w3.org/Graphics/SVG/1.1/DTD/svg11.dtd">
<!-- Created with matplotlib (https://matplotlib.org/) -->
<svg height="712.765625pt" version="1.1" viewBox="0 0 1072.432031 712.765625" width="1072.432031pt" xmlns="http://www.w3.org/2000/svg" xmlns:xlink="http://www.w3.org/1999/xlink">
 <defs>
  <style type="text/css">
*{stroke-linecap:butt;stroke-linejoin:round;}
  </style>
 </defs>
 <g id="figure_1">
  <g id="patch_1">
   <path d="M 0 712.765625
L 1072.432031 712.765625
L 1072.432031 0
L 0 0
z
" style="fill:#ffffff;"/>
  </g>
  <g id="axes_1">
   <g id="patch_2">
    <path d="M 56.207031 667.6
L 1065.232031 667.6
L 1065.232031 7.2
L 56.207031 7.2
z
" style="fill:#ffffff;"/>
   </g>
   <g id="matplotlib.axis_1">
    <g id="xtick_1">
     <g id="line2d_1">
      <path clip-path="url(#pba15f6ffb9)" d="M 102.071804 667.6
L 102.071804 7.2
" style="fill:none;stroke:#e6e2df;stroke-linecap:square;stroke-width:0.8;"/>
     </g>
     <g id="line2d_2"/>
     <g id="text_1">
      <!-- 1 -->
      <defs>
       <path d="M 7.625 0
L 7.625 7.46875
L 25.140625 7.46875
L 25.140625 60.40625
L 9.625 49.3125
L 9.625 57.625
L 25.875 68.796875
L 33.984375 68.796875
L 33.984375 7.46875
L 50.734375 7.46875
L 50.734375 0
z
" id="LiberationSans-49"/>
      </defs>
      <g style="fill:#444950;" transform="translate(97.901101 684.470312)scale(0.15 -0.15)">
       <use xlink:href="#LiberationSans-49"/>
      </g>
     </g>
    </g>
    <g id="xtick_2">
     <g id="line2d_3">
      <path clip-path="url(#pba15f6ffb9)" d="M 254.95438 667.6
L 254.95438 7.2
" style="fill:none;stroke:#e6e2df;stroke-linecap:square;stroke-width:0.8;"/>
     </g>
     <g id="line2d_4"/>
     <g id="text_2">
      <!-- 2 -->
      <defs>
       <path d="M 5.03125 0
L 5.03125 6.203125
Q 7.515625 11.921875 11.109375 16.28125
Q 14.703125 20.65625 18.65625 24.1875
Q 22.609375 27.734375 26.484375 30.765625
Q 30.375 33.796875 33.5 36.8125
Q 36.625 39.84375 38.546875 43.15625
Q 40.484375 46.484375 40.484375 50.6875
Q 40.484375 56.34375 37.15625 59.46875
Q 33.84375 62.59375 27.9375 62.59375
Q 22.3125 62.59375 18.671875 59.546875
Q 15.046875 56.5 14.40625 50.984375
L 5.421875 51.8125
Q 6.390625 60.0625 12.421875 64.9375
Q 18.453125 69.828125 27.9375 69.828125
Q 38.328125 69.828125 43.921875 64.921875
Q 49.515625 60.015625 49.515625 50.984375
Q 49.515625 46.96875 47.671875 43.015625
Q 45.84375 39.0625 42.234375 35.109375
Q 38.625 31.15625 28.421875 22.859375
Q 22.796875 18.265625 19.46875 14.578125
Q 16.15625 10.890625 14.703125 7.46875
L 50.59375 7.46875
L 50.59375 0
z
" id="LiberationSans-50"/>
      </defs>
      <g style="fill:#444950;" transform="translate(250.783677 684.470312)scale(0.15 -0.15)">
       <use xlink:href="#LiberationSans-50"/>
      </g>
     </g>
    </g>
    <g id="xtick_3">
     <g id="line2d_5">
      <path clip-path="url(#pba15f6ffb9)" d="M 407.836955 667.6
L 407.836955 7.2
" style="fill:none;stroke:#e6e2df;stroke-linecap:square;stroke-width:0.8;"/>
     </g>
     <g id="line2d_6"/>
     <g id="text_3">
      <!-- 4 -->
      <defs>
       <path d="M 43.015625 15.578125
L 43.015625 0
L 34.71875 0
L 34.71875 15.578125
L 2.296875 15.578125
L 2.296875 22.40625
L 33.796875 68.796875
L 43.015625 68.796875
L 43.015625 22.515625
L 52.6875 22.515625
L 52.6875 15.578125
z
M 34.71875 58.890625
Q 34.625 58.59375 33.34375 56.296875
Q 32.078125 54 31.453125 53.078125
L 13.8125 27.09375
L 11.1875 23.484375
L 10.40625 22.515625
L 34.71875 22.515625
z
" id="LiberationSans-52"/>
      </defs>
      <g style="fill:#444950;" transform="translate(403.666252 684.470312)scale(0.15 -0.15)">
       <use xlink:href="#LiberationSans-52"/>
      </g>
     </g>
    </g>
    <g id="xtick_4">
     <g id="line2d_7">
      <path clip-path="url(#pba15f6ffb9)" d="M 560.719531 667.6
L 560.719531 7.2
" style="fill:none;stroke:#e6e2df;stroke-linecap:square;stroke-width:0.8;"/>
     </g>
     <g id="line2d_8"/>
     <g id="text_4">
      <!-- 8 -->
      <defs>
       <path d="M 51.265625 19.1875
Q 51.265625 9.671875 45.203125 4.34375
Q 39.15625 -0.984375 27.828125 -0.984375
Q 16.796875 -0.984375 10.5625 4.234375
Q 4.34375 9.46875 4.34375 19.09375
Q 4.34375 25.828125 8.203125 30.421875
Q 12.0625 35.015625 18.0625 35.984375
L 18.0625 36.1875
Q 12.453125 37.5 9.203125 41.890625
Q 5.953125 46.296875 5.953125 52.203125
Q 5.953125 60.0625 11.828125 64.9375
Q 17.71875 69.828125 27.640625 69.828125
Q 37.796875 69.828125 43.671875 65.03125
Q 49.5625 60.25 49.5625 52.09375
Q 49.5625 46.1875 46.28125 41.796875
Q 43.015625 37.40625 37.359375 36.28125
L 37.359375 36.078125
Q 43.953125 35.015625 47.609375 30.5
Q 51.265625 25.984375 51.265625 19.1875
z
M 40.4375 51.609375
Q 40.4375 63.28125 27.640625 63.28125
Q 21.4375 63.28125 18.1875 60.34375
Q 14.9375 57.421875 14.9375 51.609375
Q 14.9375 45.703125 18.28125 42.59375
Q 21.625 39.5 27.734375 39.5
Q 33.9375 39.5 37.1875 42.359375
Q 40.4375 45.21875 40.4375 51.609375
z
M 42.140625 20.015625
Q 42.140625 26.421875 38.328125 29.65625
Q 34.515625 32.90625 27.640625 32.90625
Q 20.953125 32.90625 17.1875 29.40625
Q 13.421875 25.921875 13.421875 19.828125
Q 13.421875 5.609375 27.9375 5.609375
Q 35.109375 5.609375 38.625 9.046875
Q 42.140625 12.5 42.140625 20.015625
z
" id="LiberationSans-56"/>
      </defs>
      <g style="fill:#444950;" transform="translate(556.548828 684.470312)scale(0.15 -0.15)">
       <use xlink:href="#LiberationSans-56"/>
      </g>
     </g>
    </g>
    <g id="xtick_5">
     <g id="line2d_9">
      <path clip-path="url(#pba15f6ffb9)" d="M 713.602107 667.6
L 713.602107 7.2
" style="fill:none;stroke:#e6e2df;stroke-linecap:square;stroke-width:0.8;"/>
     </g>
     <g id="line2d_10"/>
     <g id="text_5">
      <!-- 16 -->
      <defs>
       <path d="M 51.21875 22.515625
Q 51.21875 11.625 45.3125 5.3125
Q 39.40625 -0.984375 29 -0.984375
Q 17.390625 -0.984375 11.234375 7.65625
Q 5.078125 16.3125 5.078125 32.8125
Q 5.078125 50.6875 11.46875 60.25
Q 17.875 69.828125 29.6875 69.828125
Q 45.265625 69.828125 49.3125 55.8125
L 40.921875 54.296875
Q 38.328125 62.703125 29.59375 62.703125
Q 22.078125 62.703125 17.9375 55.6875
Q 13.8125 48.6875 13.8125 35.40625
Q 16.21875 39.84375 20.5625 42.15625
Q 24.90625 44.484375 30.515625 44.484375
Q 40.046875 44.484375 45.625 38.515625
Q 51.21875 32.5625 51.21875 22.515625
z
M 42.28125 22.125
Q 42.28125 29.59375 38.625 33.640625
Q 34.96875 37.703125 28.421875 37.703125
Q 22.265625 37.703125 18.484375 34.109375
Q 14.703125 30.515625 14.703125 24.21875
Q 14.703125 16.265625 18.625 11.1875
Q 22.5625 6.109375 28.71875 6.109375
Q 35.0625 6.109375 38.671875 10.375
Q 42.28125 14.65625 42.28125 22.125
z
" id="LiberationSans-54"/>
      </defs>
      <g style="fill:#444950;" transform="translate(705.260701 684.470312)scale(0.15 -0.15)">
       <use xlink:href="#LiberationSans-49"/>
       <use x="55.615234" xlink:href="#LiberationSans-54"/>
      </g>
     </g>
    </g>
    <g id="xtick_6">
     <g id="line2d_11">
      <path clip-path="url(#pba15f6ffb9)" d="M 866.484683 667.6
L 866.484683 7.2
" style="fill:none;stroke:#e6e2df;stroke-linecap:square;stroke-width:0.8;"/>
     </g>
     <g id="line2d_12"/>
     <g id="text_6">
      <!-- 32 -->
      <defs>
       <path d="M 51.21875 19
Q 51.21875 9.46875 45.15625 4.234375
Q 39.109375 -0.984375 27.875 -0.984375
Q 17.4375 -0.984375 11.203125 3.734375
Q 4.984375 8.453125 3.8125 17.671875
L 12.890625 18.5
Q 14.65625 6.296875 27.875 6.296875
Q 34.515625 6.296875 38.296875 9.5625
Q 42.09375 12.84375 42.09375 19.28125
Q 42.09375 24.90625 37.765625 28.046875
Q 33.453125 31.203125 25.296875 31.203125
L 20.3125 31.203125
L 20.3125 38.8125
L 25.09375 38.8125
Q 32.328125 38.8125 36.296875 41.96875
Q 40.28125 45.125 40.28125 50.6875
Q 40.28125 56.203125 37.03125 59.390625
Q 33.796875 62.59375 27.390625 62.59375
Q 21.578125 62.59375 17.984375 59.609375
Q 14.40625 56.640625 13.8125 51.21875
L 4.984375 51.90625
Q 5.953125 60.359375 11.984375 65.09375
Q 18.015625 69.828125 27.484375 69.828125
Q 37.84375 69.828125 43.578125 65.015625
Q 49.3125 60.203125 49.3125 51.609375
Q 49.3125 45.015625 45.625 40.890625
Q 41.9375 36.765625 34.90625 35.296875
L 34.90625 35.109375
Q 42.625 34.28125 46.921875 29.9375
Q 51.21875 25.59375 51.21875 19
z
" id="LiberationSans-51"/>
      </defs>
      <g style="fill:#444950;" transform="translate(858.143277 684.470312)scale(0.15 -0.15)">
       <use xlink:href="#LiberationSans-51"/>
       <use x="55.615234" xlink:href="#LiberationSans-50"/>
      </g>
     </g>
    </g>
    <g id="xtick_7">
     <g id="line2d_13">
      <path clip-path="url(#pba15f6ffb9)" d="M 1019.367259 667.6
L 1019.367259 7.2
" style="fill:none;stroke:#e6e2df;stroke-linecap:square;stroke-width:0.8;"/>
     </g>
     <g id="line2d_14"/>
     <g id="text_7">
      <!-- 64 -->
      <g style="fill:#444950;" transform="translate(1011.025852 684.470312)scale(0.15 -0.15)">
       <use xlink:href="#LiberationSans-54"/>
       <use x="55.615234" xlink:href="#LiberationSans-52"/>
      </g>
     </g>
    </g>
    <g id="xtick_8">
     <g id="line2d_15"/>
    </g>
    <g id="xtick_9">
     <g id="line2d_16"/>
    </g>
    <g id="xtick_10">
     <g id="line2d_17"/>
    </g>
    <g id="text_8">
     <!-- Buckets in parallel (proportional to total staging memory allocated) -->
     <defs>
      <path d="M 61.421875 19.390625
Q 61.421875 10.203125 54.734375 5.09375
Q 48.046875 0 36.140625 0
L 8.203125 0
L 8.203125 68.796875
L 33.203125 68.796875
Q 57.421875 68.796875 57.421875 52.09375
Q 57.421875 46 54 41.84375
Q 50.59375 37.703125 44.34375 36.28125
Q 52.546875 35.296875 56.984375 30.78125
Q 61.421875 26.265625 61.421875 19.390625
z
M 48.046875 50.984375
Q 48.046875 56.546875 44.234375 58.9375
Q 40.4375 61.328125 33.203125 61.328125
L 17.53125 61.328125
L 17.53125 39.546875
L 33.203125 39.546875
Q 40.671875 39.546875 44.359375 42.359375
Q 48.046875 45.171875 48.046875 50.984375
z
M 52 20.125
Q 52 32.28125 34.90625 32.28125
L 17.53125 32.28125
L 17.53125 7.46875
L 35.640625 7.46875
Q 44.1875 7.46875 48.09375 10.640625
Q 52 13.8125 52 20.125
z
" id="LiberationSans-66"/>
      <path d="M 15.328125 52.828125
L 15.328125 19.34375
Q 15.328125 14.109375 16.359375 11.21875
Q 17.390625 8.34375 19.625 7.078125
Q 21.875 5.8125 26.21875 5.8125
Q 32.5625 5.8125 36.21875 10.15625
Q 39.890625 14.5 39.890625 22.21875
L 39.890625 52.828125
L 48.6875 52.828125
L 48.6875 11.28125
Q 48.6875 2.046875 48.96875 0
L 40.671875 0
Q 40.625 0.25 40.578125 1.3125
Q 40.53125 2.390625 40.453125 3.78125
Q 40.375 5.171875 40.28125 9.03125
L 40.140625 9.03125
Q 37.109375 3.5625 33.125 1.28125
Q 29.15625 -0.984375 23.25 -0.984375
Q 14.546875 -0.984375 10.515625 3.34375
Q 6.5 7.671875 6.5 17.625
L 6.5 52.828125
z
" id="LiberationSans-117"/>
      <path d="M 13.421875 26.65625
Q 13.421875 16.109375 16.734375 11.03125
Q 20.0625 5.953125 26.765625 5.953125
Q 31.453125 5.953125 34.59375 8.484375
Q 37.75 11.03125 38.484375 16.3125
L 47.359375 15.71875
Q 46.34375 8.109375 40.875 3.5625
Q 35.40625 -0.984375 27 -0.984375
Q 15.921875 -0.984375 10.078125 6.015625
Q 4.25 13.03125 4.25 26.46875
Q 4.25 39.796875 10.109375 46.796875
Q 15.96875 53.8125 26.90625 53.8125
Q 35.015625 53.8125 40.359375 49.609375
Q 45.703125 45.40625 47.078125 38.03125
L 38.03125 37.359375
Q 37.359375 41.75 34.5625 44.328125
Q 31.78125 46.921875 26.65625 46.921875
Q 19.671875 46.921875 16.546875 42.28125
Q 13.421875 37.640625 13.421875 26.65625
z
" id="LiberationSans-99"/>
      <path d="M 39.84375 0
L 21.96875 24.125
L 15.53125 18.796875
L 15.53125 0
L 6.734375 0
L 6.734375 72.46875
L 15.53125 72.46875
L 15.53125 27.203125
L 38.71875 52.828125
L 49.03125 52.828125
L 27.59375 30.125
L 50.140625 0
z
" id="LiberationSans-107"/>
      <path d="M 13.484375 24.5625
Q 13.484375 15.484375 17.234375 10.546875
Q 21 5.609375 28.21875 5.609375
Q 33.9375 5.609375 37.375 7.90625
Q 40.828125 10.203125 42.046875 13.71875
L 49.75 11.53125
Q 45.015625 -0.984375 28.21875 -0.984375
Q 16.5 -0.984375 10.375 6
Q 4.25 12.984375 4.25 26.765625
Q 4.25 39.84375 10.375 46.828125
Q 16.5 53.8125 27.875 53.8125
Q 51.171875 53.8125 51.171875 25.734375
L 51.171875 24.5625
z
M 42.09375 31.296875
Q 41.359375 39.65625 37.84375 43.484375
Q 34.328125 47.3125 27.734375 47.3125
Q 21.34375 47.3125 17.609375 43.03125
Q 13.875 38.765625 13.578125 31.296875
z
" id="LiberationSans-101"/>
      <path d="M 27.046875 0.390625
Q 22.703125 -0.78125 18.171875 -0.78125
Q 7.625 -0.78125 7.625 11.1875
L 7.625 46.4375
L 1.515625 46.4375
L 1.515625 52.828125
L 7.953125 52.828125
L 10.546875 64.65625
L 16.40625 64.65625
L 16.40625 52.828125
L 26.171875 52.828125
L 26.171875 46.4375
L 16.40625 46.4375
L 16.40625 13.09375
Q 16.40625 9.28125 17.640625 7.734375
Q 18.890625 6.203125 21.96875 6.203125
Q 23.734375 6.203125 27.046875 6.890625
z
" id="LiberationSans-116"/>
      <path d="M 46.390625 14.59375
Q 46.390625 7.125 40.75 3.0625
Q 35.109375 -0.984375 24.953125 -0.984375
Q 15.09375 -0.984375 9.734375 2.265625
Q 4.390625 5.515625 2.78125 12.40625
L 10.546875 13.921875
Q 11.671875 9.671875 15.1875 7.6875
Q 18.703125 5.71875 24.953125 5.71875
Q 31.640625 5.71875 34.734375 7.765625
Q 37.84375 9.8125 37.84375 13.921875
Q 37.84375 17.046875 35.6875 19
Q 33.546875 20.953125 28.765625 22.21875
L 22.46875 23.875
Q 14.890625 25.828125 11.6875 27.703125
Q 8.5 29.59375 6.6875 32.28125
Q 4.890625 34.96875 4.890625 38.875
Q 4.890625 46.09375 10.03125 49.875
Q 15.1875 53.65625 25.046875 53.65625
Q 33.796875 53.65625 38.9375 50.578125
Q 44.09375 47.515625 45.453125 40.71875
L 37.546875 39.75
Q 36.8125 43.265625 33.609375 45.140625
Q 30.421875 47.015625 25.046875 47.015625
Q 19.09375 47.015625 16.25 45.203125
Q 13.421875 43.40625 13.421875 39.75
Q 13.421875 37.5 14.59375 36.03125
Q 15.765625 34.578125 18.0625 33.546875
Q 20.359375 32.515625 27.734375 30.71875
Q 34.71875 28.953125 37.796875 27.46875
Q 40.875 25.984375 42.65625 24.171875
Q 44.4375 22.359375 45.40625 19.984375
Q 46.390625 17.625 46.390625 14.59375
z
" id="LiberationSans-115"/>
      <path id="LiberationSans-32"/>
      <path d="M 6.6875 64.0625
L 6.6875 72.46875
L 15.484375 72.46875
L 15.484375 64.0625
z
M 6.6875 0
L 6.6875 52.828125
L 15.484375 52.828125
L 15.484375 0
z
" id="LiberationSans-105"/>
      <path d="M 40.28125 0
L 40.28125 33.5
Q 40.28125 38.71875 39.25 41.59375
Q 38.234375 44.484375 35.984375 45.75
Q 33.734375 47.015625 29.390625 47.015625
Q 23.046875 47.015625 19.375 42.671875
Q 15.71875 38.328125 15.71875 30.609375
L 15.71875 0
L 6.9375 0
L 6.9375 41.546875
Q 6.9375 50.78125 6.640625 52.828125
L 14.9375 52.828125
Q 14.984375 52.59375 15.03125 51.515625
Q 15.09375 50.4375 15.15625 49.046875
Q 15.234375 47.65625 15.328125 43.796875
L 15.484375 43.796875
Q 18.5 49.265625 22.484375 51.53125
Q 26.46875 53.8125 32.375 53.8125
Q 41.0625 53.8125 45.09375 49.484375
Q 49.125 45.171875 49.125 35.203125
L 49.125 0
z
" id="LiberationSans-110"/>
      <path d="M 51.421875 26.65625
Q 51.421875 -0.984375 31.984375 -0.984375
Q 19.78125 -0.984375 15.578125 8.203125
L 15.328125 8.203125
Q 15.53125 7.8125 15.53125 -0.09375
L 15.53125 -20.75
L 6.734375 -20.75
L 6.734375 42.046875
Q 6.734375 50.203125 6.453125 52.828125
L 14.9375 52.828125
Q 14.984375 52.640625 15.078125 51.4375
Q 15.1875 50.25 15.3125 47.75
Q 15.4375 45.265625 15.4375 44.34375
L 15.625 44.34375
Q 17.96875 49.21875 21.828125 51.484375
Q 25.6875 53.765625 31.984375 53.765625
Q 41.75 53.765625 46.578125 47.21875
Q 51.421875 40.671875 51.421875 26.65625
z
M 42.1875 26.46875
Q 42.1875 37.5 39.203125 42.234375
Q 36.234375 46.96875 29.734375 46.96875
Q 24.515625 46.96875 21.5625 44.765625
Q 18.609375 42.578125 17.0625 37.90625
Q 15.53125 33.25 15.53125 25.78125
Q 15.53125 15.375 18.84375 10.4375
Q 22.171875 5.515625 29.640625 5.515625
Q 36.1875 5.515625 39.1875 10.328125
Q 42.1875 15.140625 42.1875 26.46875
z
" id="LiberationSans-112"/>
      <path d="M 20.21875 -0.984375
Q 12.25 -0.984375 8.25 3.21875
Q 4.25 7.421875 4.25 14.75
Q 4.25 22.953125 9.640625 27.34375
Q 15.046875 31.734375 27.046875 32.03125
L 38.921875 32.234375
L 38.921875 35.109375
Q 38.921875 41.546875 36.1875 44.328125
Q 33.453125 47.125 27.59375 47.125
Q 21.6875 47.125 19 45.109375
Q 16.3125 43.109375 15.765625 38.71875
L 6.59375 39.546875
Q 8.84375 53.8125 27.78125 53.8125
Q 37.75 53.8125 42.765625 49.234375
Q 47.796875 44.671875 47.796875 36.03125
L 47.796875 13.28125
Q 47.796875 9.375 48.828125 7.390625
Q 49.859375 5.421875 52.734375 5.421875
Q 54 5.421875 55.609375 5.765625
L 55.609375 0.296875
Q 52.296875 -0.484375 48.828125 -0.484375
Q 43.953125 -0.484375 41.71875 2.078125
Q 39.5 4.640625 39.203125 10.109375
L 38.921875 10.109375
Q 35.546875 4.046875 31.078125 1.53125
Q 26.609375 -0.984375 20.21875 -0.984375
z
M 22.21875 5.609375
Q 27.046875 5.609375 30.8125 7.8125
Q 34.578125 10.015625 36.75 13.84375
Q 38.921875 17.671875 38.921875 21.734375
L 38.921875 26.078125
L 29.296875 25.875
Q 23.09375 25.78125 19.890625 24.609375
Q 16.703125 23.4375 14.984375 21
Q 13.28125 18.5625 13.28125 14.59375
Q 13.28125 10.296875 15.59375 7.953125
Q 17.921875 5.609375 22.21875 5.609375
z
" id="LiberationSans-97"/>
      <path d="M 6.9375 0
L 6.9375 40.53125
Q 6.9375 46.09375 6.640625 52.828125
L 14.9375 52.828125
Q 15.328125 43.84375 15.328125 42.046875
L 15.53125 42.046875
Q 17.625 48.828125 20.359375 51.3125
Q 23.09375 53.8125 28.078125 53.8125
Q 29.828125 53.8125 31.640625 53.328125
L 31.640625 45.265625
Q 29.890625 45.75 26.953125 45.75
Q 21.484375 45.75 18.59375 41.03125
Q 15.71875 36.328125 15.71875 27.546875
L 15.71875 0
z
" id="LiberationSans-114"/>
      <path d="M 6.734375 0
L 6.734375 72.46875
L 15.53125 72.46875
L 15.53125 0
z
" id="LiberationSans-108"/>
      <path d="M 6.203125 25.984375
Q 6.203125 40.09375 10.625 51.3125
Q 15.046875 62.546875 24.21875 72.46875
L 32.71875 72.46875
Q 23.578125 62.3125 19.3125 50.875
Q 15.046875 39.453125 15.046875 25.875
Q 15.046875 12.359375 19.265625 0.96875
Q 23.484375 -10.40625 32.71875 -20.703125
L 24.21875 -20.703125
Q 14.984375 -10.75 10.59375 0.5
Q 6.203125 11.765625 6.203125 25.78125
z
" id="LiberationSans-40"/>
      <path d="M 51.421875 26.46875
Q 51.421875 12.59375 45.3125 5.796875
Q 39.203125 -0.984375 27.59375 -0.984375
Q 16.015625 -0.984375 10.109375 6.078125
Q 4.203125 13.140625 4.203125 26.46875
Q 4.203125 53.8125 27.875 53.8125
Q 39.984375 53.8125 45.703125 47.140625
Q 51.421875 40.484375 51.421875 26.46875
z
M 42.1875 26.46875
Q 42.1875 37.40625 38.9375 42.359375
Q 35.6875 47.3125 28.03125 47.3125
Q 20.3125 47.3125 16.859375 42.25
Q 13.421875 37.203125 13.421875 26.46875
Q 13.421875 16.015625 16.8125 10.765625
Q 20.21875 5.515625 27.484375 5.515625
Q 35.40625 5.515625 38.796875 10.59375
Q 42.1875 15.671875 42.1875 26.46875
z
" id="LiberationSans-111"/>
      <path d="M 26.765625 -20.75
Q 18.109375 -20.75 12.984375 -17.359375
Q 7.859375 -13.96875 6.390625 -7.71875
L 15.234375 -6.453125
Q 16.109375 -10.109375 19.109375 -12.078125
Q 22.125 -14.0625 27 -14.0625
Q 40.140625 -14.0625 40.140625 1.3125
L 40.140625 9.8125
L 40.046875 9.8125
Q 37.546875 4.734375 33.203125 2.171875
Q 28.859375 -0.390625 23.046875 -0.390625
Q 13.328125 -0.390625 8.765625 6.046875
Q 4.203125 12.5 4.203125 26.3125
Q 4.203125 40.328125 9.109375 46.984375
Q 14.015625 53.65625 24.03125 53.65625
Q 29.640625 53.65625 33.765625 51.09375
Q 37.890625 48.53125 40.140625 43.796875
L 40.234375 43.796875
Q 40.234375 45.265625 40.421875 48.875
Q 40.625 52.484375 40.828125 52.828125
L 49.171875 52.828125
Q 48.875 50.203125 48.875 41.890625
L 48.875 1.515625
Q 48.875 -20.75 26.765625 -20.75
z
M 40.140625 26.421875
Q 40.140625 32.859375 38.375 37.515625
Q 36.625 42.1875 33.421875 44.65625
Q 30.21875 47.125 26.171875 47.125
Q 19.4375 47.125 16.359375 42.234375
Q 13.28125 37.359375 13.28125 26.421875
Q 13.28125 15.578125 16.15625 10.84375
Q 19.046875 6.109375 26.03125 6.109375
Q 30.171875 6.109375 33.390625 8.546875
Q 36.625 10.984375 38.375 15.546875
Q 40.140625 20.125 40.140625 26.421875
z
" id="LiberationSans-103"/>
      <path d="M 37.5 0
L 37.5 33.5
Q 37.5 41.15625 35.390625 44.078125
Q 33.296875 47.015625 27.828125 47.015625
Q 22.21875 47.015625 18.9375 42.71875
Q 15.671875 38.421875 15.671875 30.609375
L 15.671875 0
L 6.9375 0
L 6.9375 41.546875
Q 6.9375 50.78125 6.640625 52.828125
L 14.9375 52.828125
Q 14.984375 52.59375 15.03125 51.515625
Q 15.09375 50.4375 15.15625 49.046875
Q 15.234375 47.65625 15.328125 43.796875
L 15.484375 43.796875
Q 18.3125 49.421875 21.96875 51.609375
Q 25.640625 53.8125 30.90625 53.8125
Q 36.921875 53.8125 40.40625 51.421875
Q 43.890625 49.03125 45.265625 43.796875
L 45.40625 43.796875
Q 48.140625 49.125 52.015625 51.46875
Q 55.90625 53.8125 61.421875 53.8125
Q 69.4375 53.8125 73.0625 49.46875
Q 76.703125 45.125 76.703125 35.203125
L 76.703125 0
L 68.015625 0
L 68.015625 33.5
Q 68.015625 41.15625 65.90625 44.078125
Q 63.8125 47.015625 58.34375 47.015625
Q 52.59375 47.015625 49.390625 42.75
Q 46.1875 38.484375 46.1875 30.609375
L 46.1875 0
z
" id="LiberationSans-109"/>
      <path d="M 9.328125 -20.75
Q 5.71875 -20.75 3.265625 -20.21875
L 3.265625 -13.625
Q 5.125 -13.921875 7.375 -13.921875
Q 15.578125 -13.921875 20.359375 -1.859375
L 21.1875 0.25
L 0.25 52.828125
L 9.625 52.828125
L 20.75 23.640625
Q 21 22.953125 21.34375 22
Q 21.6875 21.046875 23.53125 15.625
Q 25.390625 10.203125 25.53125 9.578125
L 28.953125 19.1875
L 40.53125 52.828125
L 49.8125 52.828125
L 29.5 0
Q 26.21875 -8.453125 23.390625 -12.578125
Q 20.5625 -16.703125 17.109375 -18.71875
Q 13.671875 -20.75 9.328125 -20.75
z
" id="LiberationSans-121"/>
      <path d="M 40.09375 8.5
Q 37.640625 3.421875 33.609375 1.21875
Q 29.59375 -0.984375 23.640625 -0.984375
Q 13.625 -0.984375 8.90625 5.75
Q 4.203125 12.5 4.203125 26.171875
Q 4.203125 53.8125 23.640625 53.8125
Q 29.640625 53.8125 33.640625 51.609375
Q 37.640625 49.421875 40.09375 44.625
L 40.1875 44.625
L 40.09375 50.53125
L 40.09375 72.46875
L 48.875 72.46875
L 48.875 10.890625
Q 48.875 2.640625 49.171875 0
L 40.765625 0
Q 40.625 0.78125 40.453125 3.609375
Q 40.28125 6.453125 40.28125 8.5
z
M 13.421875 26.46875
Q 13.421875 15.375 16.34375 10.59375
Q 19.28125 5.8125 25.875 5.8125
Q 33.34375 5.8125 36.71875 10.984375
Q 40.09375 16.15625 40.09375 27.046875
Q 40.09375 37.546875 36.71875 42.421875
Q 33.34375 47.3125 25.984375 47.3125
Q 19.34375 47.3125 16.375 42.40625
Q 13.421875 37.5 13.421875 26.46875
z
" id="LiberationSans-100"/>
      <path d="M 27.09375 25.78125
Q 27.09375 11.671875 22.671875 0.4375
Q 18.265625 -10.796875 9.078125 -20.703125
L 0.59375 -20.703125
Q 9.765625 -10.453125 14.015625 0.890625
Q 18.265625 12.25 18.265625 25.875
Q 18.265625 39.5 13.984375 50.875
Q 9.71875 62.25 0.59375 72.46875
L 9.078125 72.46875
Q 18.3125 62.5 22.703125 51.234375
Q 27.09375 39.984375 27.09375 25.984375
z
" id="LiberationSans-41"/>
     </defs>
     <g style="fill:#444950;" transform="translate(341.041016 702.453125)scale(0.15 -0.15)">
      <use xlink:href="#LiberationSans-66"/>
      <use x="66.699219" xlink:href="#LiberationSans-117"/>
      <use x="122.314453" xlink:href="#LiberationSans-99"/>
      <use x="172.314453" xlink:href="#LiberationSans-107"/>
      <use x="222.314453" xlink:href="#LiberationSans-101"/>
      <use x="277.929688" xlink:href="#LiberationSans-116"/>
      <use x="305.712891" xlink:href="#LiberationSans-115"/>
      <use x="355.712891" xlink:href="#LiberationSans-32"/>
      <use x="383.496094" xlink:href="#LiberationSans-105"/>
      <use x="405.712891" xlink:href="#LiberationSans-110"/>
      <use x="461.328125" xlink:href="#LiberationSans-32"/>
      <use x="489.111328" xlink:href="#LiberationSans-112"/>
      <use x="544.726562" xlink:href="#LiberationSans-97"/>
      <use x="600.341797" xlink:href="#LiberationSans-114"/>
      <use x="633.642578" xlink:href="#LiberationSans-97"/>
      <use x="689.257812" xlink:href="#LiberationSans-108"/>
      <use x="711.474609" xlink:href="#LiberationSans-108"/>
      <use x="733.691406" xlink:href="#LiberationSans-101"/>
      <use x="789.306641" xlink:href="#LiberationSans-108"/>
      <use x="811.523438" xlink:href="#LiberationSans-32"/>
      <use x="839.306641" xlink:href="#LiberationSans-40"/>
      <use x="872.607422" xlink:href="#LiberationSans-112"/>
      <use x="928.222656" xlink:href="#LiberationSans-114"/>
      <use x="961.523438" xlink:href="#LiberationSans-111"/>
      <use x="1017.138672" xlink:href="#LiberationSans-112"/>
      <use x="1072.753906" xlink:href="#LiberationSans-111"/>
      <use x="1128.369141" xlink:href="#LiberationSans-114"/>
      <use x="1161.669922" xlink:href="#LiberationSans-116"/>
      <use x="1189.453125" xlink:href="#LiberationSans-105"/>
      <use x="1211.669922" xlink:href="#LiberationSans-111"/>
      <use x="1267.285156" xlink:href="#LiberationSans-110"/>
      <use x="1322.900391" xlink:href="#LiberationSans-97"/>
      <use x="1378.515625" xlink:href="#LiberationSans-108"/>
      <use x="1400.732422" xlink:href="#LiberationSans-32"/>
      <use x="1428.515625" xlink:href="#LiberationSans-116"/>
      <use x="1456.298828" xlink:href="#LiberationSans-111"/>
      <use x="1511.914062" xlink:href="#LiberationSans-32"/>
      <use x="1539.697266" xlink:href="#LiberationSans-116"/>
      <use x="1567.480469" xlink:href="#LiberationSans-111"/>
      <use x="1623.095703" xlink:href="#LiberationSans-116"/>
      <use x="1650.878906" xlink:href="#LiberationSans-97"/>
      <use x="1706.494141" xlink:href="#LiberationSans-108"/>
      <use x="1728.710938" xlink:href="#LiberationSans-32"/>
      <use x="1756.494141" xlink:href="#LiberationSans-115"/>
      <use x="1806.494141" xlink:href="#LiberationSans-116"/>
      <use x="1834.277344" xlink:href="#LiberationSans-97"/>
      <use x="1889.892578" xlink:href="#LiberationSans-103"/>
      <use x="1945.507812" xlink:href="#LiberationSans-105"/>
      <use x="1967.724609" xlink:href="#LiberationSans-110"/>
      <use x="2023.339844" xlink:href="#LiberationSans-103"/>
      <use x="2078.955078" xlink:href="#LiberationSans-32"/>
      <use x="2106.738281" xlink:href="#LiberationSans-109"/>
      <use x="2190.039062" xlink:href="#LiberationSans-101"/>
      <use x="2245.654297" xlink:href="#LiberationSans-109"/>
      <use x="2328.955078" xlink:href="#LiberationSans-111"/>
      <use x="2384.570312" xlink:href="#LiberationSans-114"/>
      <use x="2417.871094" xlink:href="#LiberationSans-121"/>
      <use x="2467.871094" xlink:href="#LiberationSans-32"/>
      <use x="2495.654297" xlink:href="#LiberationSans-97"/>
      <use x="2551.269531" xlink:href="#LiberationSans-108"/>
      <use x="2573.486328" xlink:href="#LiberationSans-108"/>
      <use x="2595.703125" xlink:href="#LiberationSans-111"/>
      <use x="2651.318359" xlink:href="#LiberationSans-99"/>
      <use x="2701.318359" xlink:href="#LiberationSans-97"/>
      <use x="2756.933594" xlink:href="#LiberationSans-116"/>
      <use x="2784.716797" xlink:href="#LiberationSans-101"/>
      <use x="2840.332031" xlink:href="#LiberationSans-100"/>
      <use x="2895.947266" xlink:href="#LiberationSans-41"/>
     </g>
    </g>
   </g>
   <g id="matplotlib.axis_2">
    <g id="ytick_1">
     <g id="line2d_18">
      <path clip-path="url(#pba15f6ffb9)" d="M 56.207031 667.6
L 1065.232031 667.6
" style="fill:none;stroke:#e6e2df;stroke-linecap:square;stroke-width:0.8;"/>
     </g>
     <g id="line2d_19"/>
     <g id="text_9">
      <!-- 0 -->
      <defs>
       <path d="M 51.703125 34.421875
Q 51.703125 17.1875 45.625 8.09375
Q 39.546875 -0.984375 27.6875 -0.984375
Q 15.828125 -0.984375 9.859375 8.046875
Q 3.90625 17.09375 3.90625 34.421875
Q 3.90625 52.15625 9.6875 60.984375
Q 15.484375 69.828125 27.984375 69.828125
Q 40.140625 69.828125 45.921875 60.890625
Q 51.703125 51.953125 51.703125 34.421875
z
M 42.78125 34.421875
Q 42.78125 49.3125 39.328125 56
Q 35.890625 62.703125 27.984375 62.703125
Q 19.875 62.703125 16.328125 56.109375
Q 12.796875 49.515625 12.796875 34.421875
Q 12.796875 19.78125 16.375 12.984375
Q 19.96875 6.203125 27.78125 6.203125
Q 35.546875 6.203125 39.15625 13.125
Q 42.78125 20.0625 42.78125 34.421875
z
" id="LiberationSans-48"/>
      </defs>
      <g style="fill:#444950;" transform="translate(41.865625 673.035156)scale(0.15 -0.15)">
       <use xlink:href="#LiberationSans-48"/>
      </g>
     </g>
    </g>
    <g id="ytick_2">
     <g id="line2d_20">
      <path clip-path="url(#pba15f6ffb9)" d="M 56.207031 592.765863
L 1065.232031 592.765863
" style="fill:none;stroke:#e6e2df;stroke-linecap:square;stroke-width:0.8;"/>
     </g>
     <g id="line2d_21"/>
     <g id="text_10">
      <!-- 20 -->
      <g style="fill:#444950;" transform="translate(33.524219 598.20102)scale(0.15 -0.15)">
       <use xlink:href="#LiberationSans-50"/>
       <use x="55.615234" xlink:href="#LiberationSans-48"/>
      </g>
     </g>
    </g>
    <g id="ytick_3">
     <g id="line2d_22">
      <path clip-path="url(#pba15f6ffb9)" d="M 56.207031 517.931727
L 1065.232031 517.931727
" style="fill:none;stroke:#e6e2df;stroke-linecap:square;stroke-width:0.8;"/>
     </g>
     <g id="line2d_23"/>
     <g id="text_11">
      <!-- 40 -->
      <g style="fill:#444950;" transform="translate(33.524219 523.366883)scale(0.15 -0.15)">
       <use xlink:href="#LiberationSans-52"/>
       <use x="55.615234" xlink:href="#LiberationSans-48"/>
      </g>
     </g>
    </g>
    <g id="ytick_4">
     <g id="line2d_24">
      <path clip-path="url(#pba15f6ffb9)" d="M 56.207031 443.09759
L 1065.232031 443.09759
" style="fill:none;stroke:#e6e2df;stroke-linecap:square;stroke-width:0.8;"/>
     </g>
     <g id="line2d_25"/>
     <g id="text_12">
      <!-- 60 -->
      <g style="fill:#444950;" transform="translate(33.524219 448.532746)scale(0.15 -0.15)">
       <use xlink:href="#LiberationSans-54"/>
       <use x="55.615234" xlink:href="#LiberationSans-48"/>
      </g>
     </g>
    </g>
    <g id="ytick_5">
     <g id="line2d_26">
      <path clip-path="url(#pba15f6ffb9)" d="M 56.207031 368.263453
L 1065.232031 368.263453
" style="fill:none;stroke:#e6e2df;stroke-linecap:square;stroke-width:0.8;"/>
     </g>
     <g id="line2d_27"/>
     <g id="text_13">
      <!-- 80 -->
      <g style="fill:#444950;" transform="translate(33.524219 373.69861)scale(0.15 -0.15)">
       <use xlink:href="#LiberationSans-56"/>
       <use x="55.615234" xlink:href="#LiberationSans-48"/>
      </g>
     </g>
    </g>
    <g id="ytick_6">
     <g id="line2d_28">
      <path clip-path="url(#pba15f6ffb9)" d="M 56.207031 293.429317
L 1065.232031 293.429317
" style="fill:none;stroke:#e6e2df;stroke-linecap:square;stroke-width:0.8;"/>
     </g>
     <g id="line2d_29"/>
     <g id="text_14">
      <!-- 100 -->
      <g style="fill:#444950;" transform="translate(25.182813 298.864473)scale(0.15 -0.15)">
       <use xlink:href="#LiberationSans-49"/>
       <use x="55.615234" xlink:href="#LiberationSans-48"/>
       <use x="111.230469" xlink:href="#LiberationSans-48"/>
      </g>
     </g>
    </g>
    <g id="ytick_7">
     <g id="line2d_30">
      <path clip-path="url(#pba15f6ffb9)" d="M 56.207031 218.59518
L 1065.232031 218.59518
" style="fill:none;stroke:#e6e2df;stroke-linecap:square;stroke-width:0.8;"/>
     </g>
     <g id="line2d_31"/>
     <g id="text_15">
      <!-- 120 -->
      <g style="fill:#444950;" transform="translate(25.182813 224.030336)scale(0.15 -0.15)">
       <use xlink:href="#LiberationSans-49"/>
       <use x="55.615234" xlink:href="#LiberationSans-50"/>
       <use x="111.230469" xlink:href="#LiberationSans-48"/>
      </g>
     </g>
    </g>
    <g id="ytick_8">
     <g id="line2d_32">
      <path clip-path="url(#pba15f6ffb9)" d="M 56.207031 143.761043
L 1065.232031 143.761043
" style="fill:none;stroke:#e6e2df;stroke-linecap:square;stroke-width:0.8;"/>
     </g>
     <g id="line2d_33"/>
     <g id="text_16">
      <!-- 140 -->
      <g style="fill:#444950;" transform="translate(25.182813 149.1962)scale(0.15 -0.15)">
       <use xlink:href="#LiberationSans-49"/>
       <use x="55.615234" xlink:href="#LiberationSans-52"/>
       <use x="111.230469" xlink:href="#LiberationSans-48"/>
      </g>
     </g>
    </g>
    <g id="ytick_9">
     <g id="line2d_34">
      <path clip-path="url(#pba15f6ffb9)" d="M 56.207031 68.926907
L 1065.232031 68.926907
" style="fill:none;stroke:#e6e2df;stroke-linecap:square;stroke-width:0.8;"/>
     </g>
     <g id="line2d_35"/>
     <g id="text_17">
      <!-- 160 -->
      <g style="fill:#444950;" transform="translate(25.182813 74.362063)scale(0.15 -0.15)">
       <use xlink:href="#LiberationSans-49"/>
       <use x="55.615234" xlink:href="#LiberationSans-54"/>
       <use x="111.230469" xlink:href="#LiberationSans-48"/>
      </g>
     </g>
    </g>
    <g id="text_18">
     <!-- Total time (in ms) -->
     <defs>
      <path d="M 35.15625 61.1875
L 35.15625 0
L 25.875 0
L 25.875 61.1875
L 2.25 61.1875
L 2.25 68.796875
L 58.796875 68.796875
L 58.796875 61.1875
z
" id="LiberationSans-84"/>
     </defs>
     <g style="fill:#444950;" transform="translate(18.070313 395.307031)rotate(-90)scale(0.15 -0.15)">
      <use xlink:href="#LiberationSans-84"/>
      <use x="60.912109" xlink:href="#LiberationSans-111"/>
      <use x="116.527344" xlink:href="#LiberationSans-116"/>
      <use x="144.310547" xlink:href="#LiberationSans-97"/>
      <use x="199.925781" xlink:href="#LiberationSans-108"/>
      <use x="222.142578" xlink:href="#LiberationSans-32"/>
      <use x="249.925781" xlink:href="#LiberationSans-116"/>
      <use x="277.708984" xlink:href="#LiberationSans-105"/>
      <use x="299.925781" xlink:href="#LiberationSans-109"/>
      <use x="383.226562" xlink:href="#LiberationSans-101"/>
      <use x="438.841797" xlink:href="#LiberationSans-32"/>
      <use x="466.625" xlink:href="#LiberationSans-40"/>
      <use x="499.925781" xlink:href="#LiberationSans-105"/>
      <use x="522.142578" xlink:href="#LiberationSans-110"/>
      <use x="577.757812" xlink:href="#LiberationSans-32"/>
      <use x="605.541016" xlink:href="#LiberationSans-109"/>
      <use x="688.841797" xlink:href="#LiberationSans-115"/>
      <use x="738.841797" xlink:href="#LiberationSans-41"/>
     </g>
    </g>
   </g>
   <g id="line2d_36">
    <path clip-path="url(#pba15f6ffb9)" d="M 102.071804 44.010589
L 254.95438 44.010589
L 407.836955 44.010589
L 560.719531 44.010589
L 713.602107 44.010589
L 866.484683 44.010589
L 955.915257 44.010589
L 1019.367259 44.010589
" style="fill:none;stroke:#4285f4;stroke-linecap:square;stroke-width:2;"/>
   </g>
   <g id="line2d_37">
    <path clip-path="url(#pba15f6ffb9)" d="M 102.071804 19.277205
L 254.95438 138.256116
L 407.836955 248.151858
L 560.719531 260.821306
L 713.602107 260.412759
L 866.484683 255.084334
L 955.915257 255.51846
L 1019.367259 248.134435
" style="fill:none;stroke:#ea4335;stroke-linecap:square;stroke-width:2;"/>
    <defs>
     <path d="M 0 3
C 0.795609 3 1.55874 2.683901 2.12132 2.12132
C 2.683901 1.55874 3 0.795609 3 0
C 3 -0.795609 2.683901 -1.55874 2.12132 -2.12132
C 1.55874 -2.683901 0.795609 -3 0 -3
C -0.795609 -3 -1.55874 -2.683901 -2.12132 -2.12132
C -2.683901 -1.55874 -3 -0.795609 -3 0
C -3 0.795609 -2.683901 1.55874 -2.12132 2.12132
C -1.55874 2.683901 -0.795609 3 0 3
z
" id="mc8bf660df0" style="stroke:#ea4335;"/>
    </defs>
    <g clip-path="url(#pba15f6ffb9)">
     <use style="fill:#ea4335;stroke:#ea4335;" x="102.071804" xlink:href="#mc8bf660df0" y="19.277205"/>
     <use style="fill:#ea4335;stroke:#ea4335;" x="254.95438" xlink:href="#mc8bf660df0" y="138.256116"/>
     <use style="fill:#ea4335;stroke:#ea4335;" x="407.836955" xlink:href="#mc8bf660df0" y="248.151858"/>
     <use style="fill:#ea4335;stroke:#ea4335;" x="560.719531" xlink:href="#mc8bf660df0" y="260.821306"/>
     <use style="fill:#ea4335;stroke:#ea4335;" x="713.602107" xlink:href="#mc8bf660df0" y="260.412759"/>
     <use style="fill:#ea4335;stroke:#ea4335;" x="866.484683" xlink:href="#mc8bf660df0" y="255.084334"/>
     <use style="fill:#ea4335;stroke:#ea4335;" x="955.915257" xlink:href="#mc8bf660df0" y="255.51846"/>
     <use style="fill:#ea4335;stroke:#ea4335;" x="1019.367259" xlink:href="#mc8bf660df0" y="248.134435"/>
    </g>
   </g>
   <g id="patch_3">
    <path d="M 56.207031 667.6
L 56.207031 7.2
" style="fill:none;"/>
   </g>
   <g id="patch_4">
    <path d="M 1065.232031 667.6
L 1065.232031 7.2
" style="fill:none;"/>
   </g>
   <g id="patch_5">
    <path d="M 56.207031 667.6
L 1065.232031 667.6
" style="fill:none;"/>
   </g>
   <g id="patch_6">
    <path d="M 56.207031 7.2
L 1065.232031 7.2
" style="fill:none;"/>
   </g>
   <g id="legend_1">
    <g id="patch_7">
     <path d="M 809.280131 658.96
L 1053.136031 658.96
Q 1056.592031 658.96 1056.592031 655.504
L 1056.592031 632.4838
Q 1056.592031 629.0278 1053.136031 629.0278
L 809.280131 629.0278
Q 805.824131 629.0278 805.824131 632.4838
L 805.824131 655.504
Q 805.824131 658.96 809.280131 658.96
z
" style="fill:#ffffff;opacity:0.8;stroke:#cccccc;stroke-linejoin:miter;stroke-width:0.5;"/>
    </g>
    <g id="line2d_38">
     <path d="M 812.736131 642.4144
L 847.296131 642.4144
" style="fill:none;stroke:#4285f4;stroke-linecap:square;stroke-width:2;"/>
    </g>
    <g id="line2d_39"/>
    <g id="text_19">
     <!-- NCCL -->
     <defs>
      <path d="M 52.828125 0
L 16.015625 58.59375
L 16.265625 53.859375
L 16.5 45.703125
L 16.5 0
L 8.203125 0
L 8.203125 68.796875
L 19.046875 68.796875
L 56.25 9.8125
Q 55.671875 19.390625 55.671875 23.6875
L 55.671875 68.796875
L 64.0625 68.796875
L 64.0625 0
z
" id="LiberationSans-78"/>
      <path d="M 38.671875 62.203125
Q 27.25 62.203125 20.890625 54.859375
Q 14.546875 47.515625 14.546875 34.71875
Q 14.546875 22.078125 21.15625 14.375
Q 27.78125 6.6875 39.0625 6.6875
Q 53.515625 6.6875 60.796875 21
L 68.40625 17.1875
Q 64.15625 8.296875 56.46875 3.65625
Q 48.78125 -0.984375 38.625 -0.984375
Q 28.21875 -0.984375 20.625 3.34375
Q 13.03125 7.671875 9.046875 15.703125
Q 5.078125 23.734375 5.078125 34.71875
Q 5.078125 51.171875 13.96875 60.5
Q 22.859375 69.828125 38.578125 69.828125
Q 49.5625 69.828125 56.9375 65.53125
Q 64.3125 61.234375 67.78125 52.78125
L 58.9375 49.859375
Q 56.546875 55.859375 51.25 59.03125
Q 45.953125 62.203125 38.671875 62.203125
z
" id="LiberationSans-67"/>
      <path d="M 8.203125 0
L 8.203125 68.796875
L 17.53125 68.796875
L 17.53125 7.625
L 52.296875 7.625
L 52.296875 0
z
" id="LiberationSans-76"/>
     </defs>
     <g style="fill:#444950;" transform="translate(861.120131 648.4624)scale(0.1728 -0.1728)">
      <use xlink:href="#LiberationSans-78"/>
      <use x="72.216797" xlink:href="#LiberationSans-67"/>
      <use x="144.433594" xlink:href="#LiberationSans-67"/>
      <use x="216.650391" xlink:href="#LiberationSans-76"/>
     </g>
    </g>
    <g id="line2d_40">
     <path d="M 942.727631 642.4144
L 977.287631 642.4144
" style="fill:none;stroke:#ea4335;stroke-linecap:square;stroke-width:2;"/>
    </g>
    <g id="line2d_41">
     <g>
      <use style="fill:#ea4335;stroke:#ea4335;" x="960.007631" xlink:href="#mc8bf660df0" y="642.4144"/>
     </g>
    </g>
    <g id="text_20">
     <!-- Fairring -->
     <defs>
      <path d="M 17.53125 61.1875
L 17.53125 35.59375
L 55.90625 35.59375
L 55.90625 27.875
L 17.53125 27.875
L 17.53125 0
L 8.203125 0
L 8.203125 68.796875
L 57.078125 68.796875
L 57.078125 61.1875
z
" id="LiberationSans-70"/>
     </defs>
     <g style="fill:#444950;" transform="translate(991.111631 648.4624)scale(0.1728 -0.1728)">
      <use xlink:href="#LiberationSans-70"/>
      <use x="61.083984" xlink:href="#LiberationSans-97"/>
      <use x="116.699219" xlink:href="#LiberationSans-105"/>
      <use x="138.916016" xlink:href="#LiberationSans-114"/>
      <use x="172.216797" xlink:href="#LiberationSans-114"/>
      <use x="205.517578" xlink:href="#LiberationSans-105"/>
      <use x="227.734375" xlink:href="#LiberationSans-110"/>
      <use x="283.349609" xlink:href="#LiberationSans-103"/>
     </g>
    </g>
   </g>
  </g>
 </g>
 <defs>
  <clipPath id="pba15f6ffb9">
   <rect height="660.4" width="1009.025" x="56.207031" y="7.2"/>
  </clipPath>
 </defs>
</svg>
